<?xml version="1.0" encoding="UTF-8"?>
<svg width="310px" height="101px" viewBox="0 0 310 101" version="1.1" xmlns="http://www.w3.org/2000/svg" xmlns:xlink="http://www.w3.org/1999/xlink">
    <title>Group</title>
    <g id="Page-1" stroke="none" stroke-width="1" fill="none" fill-rule="evenodd">
        <g id="Large-Copy" transform="translate(-924.000000, -402.000000)" fill="#000000" fill-rule="nonzero">
            <g id="Group" transform="translate(924.730953, 402.648000)">
                <g id="CARRIER" transform="translate(0.000000, -0.000000)">
                    <path d="M24.0662813,35.3785781 C26.0861563,35.3785781 27.9275391,35.0826094 29.5904297,34.4906719 C31.2533203,33.8987344 32.4927969,33.3157344 33.3088594,32.7416719 L37.5302813,41.118 C36.5041875,41.998 34.7426406,42.889 32.2456406,43.791 C29.7486406,44.693 26.7841406,45.144 23.3521406,45.144 C20.1401406,45.144 17.1266563,44.5810234 14.3116875,43.4550703 C11.4967188,42.3291172 9.01372656,40.7495859 6.86271094,38.7164766 C4.71169531,36.6833672 3.03015625,34.3003203 1.81809375,31.5673359 C0.60603125,28.8343516 0,25.8579063 0,22.638 C0,19.4180938 0.604484375,16.4306484 1.81345313,13.6756641 C3.02242188,10.9206797 4.69846094,8.52113281 6.84157031,6.47702344 C8.98467969,4.43291406 11.4692187,2.84238281 14.2951875,1.70542969 C17.1211563,0.568476563 20.1401406,0 23.3521406,0 C26.7841406,0 29.7486406,0.451 32.2456406,1.353 C34.7426406,2.255 36.5041875,3.146 37.5302813,4.026 L33.3088594,12.4023281 C32.4927969,11.8220781 31.2533203,11.2375313 29.5904297,10.6486875 C27.9275391,10.0598438 26.0861563,9.76542188 24.0662813,9.76542188 C21.8260625,9.76542188 19.8715,10.1133828 18.2025938,10.8093047 C16.5336875,11.5052266 15.1392656,12.4551797 14.0193281,13.6591641 C12.8993906,14.8631484 12.0633906,16.2286094 11.5113281,17.7555469 C10.9592656,19.2824844 10.6832344,20.8769688 10.6832344,22.539 C10.6832344,24.2230312 10.9592656,25.8340156 11.5113281,27.3719531 C12.0633906,28.9098906 12.8993906,30.2808516 14.0193281,31.4848359 C15.1392656,32.6888203 16.5336875,33.6387734 18.2025938,34.3346953 C19.8715,35.0306172 21.8260625,35.3785781 24.0662813,35.3785781 Z" id="Path"></path>
                    <path d="M67.0602813,0.792 L76.8494219,0.792 L94.0455156,44.352 L83.530375,44.352 L80.3530938,35.5982344 L63.6040469,35.5982344 L60.3855156,44.352 L49.8368594,44.352 L67.0602813,0.792 Z M66.8772344,26.9579063 L77.0891875,26.9579063 L72.0283281,12.6750938 L71.9293281,12.6750938 L66.8772344,26.9579063 Z" id="Shape"></path>
                    <path d="M106.727267,0.792 L124.499314,0.792 C127.019345,0.792 129.271853,1.32051563 131.256838,2.37754688 C133.241822,3.43457813 134.807861,4.95558594 135.954955,6.94057031 C137.102049,8.92555469 137.675595,11.3019844 137.675595,14.0698594 C137.675595,16.8219219 137.187556,19.0689297 136.211478,20.8108828 C135.2354,22.5528359 134.064416,23.8588281 132.698525,24.7288594 C131.332635,25.5988906 130.06858,26.1219063 128.906361,26.2979063 L139.487502,44.352 L128.405174,44.352 L118.970267,27.0538125 L116.597361,27.0538125 L116.597361,44.352 L106.727267,44.352 L106.727267,0.792 Z M116.597361,20.2259063 L120.959549,20.2259063 C122.707517,20.2259063 124.242447,19.7979375 125.564338,18.942 C126.886228,18.0860625 127.547174,16.566 127.547174,14.3818125 C127.547174,12.1979688 126.898174,10.6871016 125.600174,9.84921094 C124.302174,9.01132031 122.779189,8.592375 121.03122,8.592375 L116.597361,8.592375 L116.597361,20.2259063 Z" id="Shape"></path>
                    <path d="M155.157405,0.792 L172.929452,0.792 C175.449483,0.792 177.701991,1.32051563 179.686975,2.37754688 C181.67196,3.43457813 183.237999,4.95558594 184.385093,6.94057031 C185.532186,8.92555469 186.105733,11.3019844 186.105733,14.0698594 C186.105733,16.8219219 185.617694,19.0689297 184.641616,20.8108828 C183.665538,22.5528359 182.494553,23.8588281 181.128663,24.7288594 C179.762772,25.5988906 178.498718,26.1219063 177.336499,26.2979063 L187.917639,44.352 L176.835311,44.352 L167.400405,27.0538125 L165.027499,27.0538125 L165.027499,44.352 L155.157405,44.352 L155.157405,0.792 Z M165.027499,20.2259063 L169.389686,20.2259063 C171.137655,20.2259063 172.672585,19.7979375 173.994475,18.942 C175.316366,18.0860625 175.977311,16.566 175.977311,14.3818125 C175.977311,12.1979688 175.328311,10.6871016 174.030311,9.84921094 C172.732311,9.01132031 171.209327,8.592375 169.461358,8.592375 L165.027499,8.592375 L165.027499,20.2259063 Z" id="Shape"></path>
                    <polygon id="Path" points="204.145449 0.792 214.009871 0.792 214.009871 44.352 204.145449 44.352"></polygon>
                    <polygon id="Path" points="231.044867 0.792 258.860773 0.792 258.860773 9.43232813 240.881961 9.43232813 240.881961 18.3299531 258.690102 18.3299531 258.690102 26.7062813 240.881961 26.7062813 240.881961 35.7116719 258.860773 35.7116719 258.860773 44.352 231.044867 44.352"></polygon>
                    <path d="M275.523714,0.792 L293.295761,0.792 C295.815792,0.792 298.0683,1.32051563 300.053284,2.37754688 C302.038269,3.43457813 303.604308,4.95558594 304.751402,6.94057031 C305.898495,8.92555469 306.472042,11.3019844 306.472042,14.0698594 C306.472042,16.8219219 305.984003,19.0689297 305.007925,20.8108828 C304.031847,22.5528359 302.860863,23.8588281 301.494972,24.7288594 C300.129081,25.5988906 298.865027,26.1219063 297.702808,26.2979063 L308.283948,44.352 L297.20162,44.352 L287.766714,27.0538125 L285.393808,27.0538125 L285.393808,44.352 L275.523714,44.352 L275.523714,0.792 Z M285.393808,20.2259063 L289.755995,20.2259063 C291.503964,20.2259063 293.038894,19.7979375 294.360784,18.942 C295.682675,18.0860625 296.34362,16.566 296.34362,14.3818125 C296.34362,12.1979688 295.69462,10.6871016 294.39662,9.84921094 C293.09862,9.01132031 291.575636,8.592375 289.827667,8.592375 L285.393808,8.592375 L285.393808,20.2259063 Z" id="Shape"></path>
                </g>
                <g id="NEST.COM" transform="translate(1.011141, 55.000000)">
                    <polygon id="Path" points="9.141 9.84328125 9.85514063 9.96342188 9.85514063 44.352 0 44.352 0 0.792 13.4614219 0.792 31.1040469 35.1089063 30.3986719 35.2527656 30.3986719 0.792 40.2450469 0.792 40.2450469 44.352 26.7119531 44.352"></polygon>
                    <polygon id="Path" points="47.712167 0.792 75.5280732 0.792 75.5280732 9.43232813 57.5492607 9.43232813 57.5492607 18.3299531 75.3574014 18.3299531 75.3574014 26.7062813 57.5492607 26.7062813 57.5492607 35.7116719 75.5280732 35.7116719 75.5280732 44.352 47.712167 44.352"></polygon>
                    <path d="M98.8743889,0 C101.564233,0 103.925709,0.296484375 105.958819,0.889453125 C107.991928,1.48242188 109.623451,2.11088281 110.853389,2.77483594 C112.083326,3.43878906 112.828233,3.88282813 113.088108,4.10695313 L108.336108,12.0511875 C107.990295,11.7751562 107.390365,11.3886094 106.536319,10.8915469 C105.682272,10.3944844 104.68024,9.94700781 103.530225,9.54911719 C102.380209,9.15122656 101.181123,8.95228125 99.932967,8.95228125 C98.2331233,8.95228125 96.8601858,9.25125781 95.8141545,9.84921094 C94.7681233,10.4471641 94.2451077,11.3471875 94.2451077,12.5492813 C94.2451077,13.365 94.5246624,14.0934063 95.0837717,14.7345 C95.6428811,15.3755937 96.5008811,15.9915938 97.6577717,16.5825 C98.8146624,17.1734062 100.283248,17.8079688 102.06353,18.4861875 C103.685342,19.0719375 105.21228,19.7718125 106.644342,20.5858125 C108.076405,21.3998125 109.339944,22.3633437 110.434959,23.4764063 C111.529975,24.5894687 112.393475,25.872 113.025459,27.324 C113.657444,28.776 113.973436,30.4299531 113.973436,32.2858594 C113.973436,34.4837969 113.520889,36.3917813 112.615795,38.0098125 C111.710701,39.6278438 110.483686,40.9633984 108.934748,42.0164766 C107.385811,43.0695547 105.630795,43.8540781 103.669701,44.3700469 C101.708608,44.8860156 99.6720608,45.144 97.5600608,45.144 C94.5601545,45.144 91.8771858,44.8010234 89.5111545,44.1150703 C87.1451233,43.4291172 85.2345608,42.6946094 83.779467,41.9115469 C82.3243733,41.1284844 81.4538264,40.596875 81.1678264,40.3167188 L86.1090608,32.0337188 C86.363092,32.2379063 86.8706389,32.5584531 87.6317014,32.9953594 C88.3927639,33.4322656 89.3202874,33.88825 90.4142717,34.3633125 C91.5082561,34.838375 92.6782092,35.2418516 93.9241311,35.5737422 C95.170053,35.9056328 96.3969827,36.0715781 97.6049202,36.0715781 C99.6330452,36.0715781 101.152592,35.6831406 102.163561,34.9062656 C103.17453,34.1293906 103.680014,33.1000313 103.680014,31.8181875 C103.680014,30.8580937 103.361014,30.0075703 102.723014,29.2666172 C102.085014,28.5256641 101.129561,27.8171953 99.8566545,27.1412109 C98.5837483,26.4652266 96.9872014,25.7532344 95.0670139,25.0052344 C93.1650452,24.2331719 91.3810686,23.3016094 89.7150842,22.2105469 C88.0490999,21.1194844 86.7001389,19.7464609 85.6682014,18.0914766 C84.6362639,16.4364922 84.1202952,14.3910938 84.1202952,11.9552813 C84.1202952,9.50503125 84.8083108,7.38589844 86.184342,5.59788281 C87.5603733,3.80986719 89.3723655,2.42988281 91.6203186,1.45792969 C93.8682717,0.485976562 96.2862952,0 98.8743889,0 Z" id="Path"></path>
                    <polygon id="Path" points="128.037365 9.43232813 117.669178 9.43232813 117.669178 0.792 148.269459 0.792 148.269459 9.43232813 137.901272 9.43232813 137.901272 44.352 128.037365 44.352"></polygon>
                    <path d="M155.184506,45.144 C153.542412,45.144 152.134842,44.5574766 150.961795,43.3844297 C149.788748,42.2113828 149.202225,40.8038125 149.202225,39.1617188 C149.202225,37.4917813 149.788748,36.0702891 150.961795,34.8972422 C152.134842,33.7241953 153.542412,33.1376719 155.184506,33.1376719 C156.848256,33.1376719 158.266655,33.7241953 159.439701,34.8972422 C160.612748,36.0702891 161.199272,37.4917813 161.199272,39.1617188 C161.199272,40.8038125 160.612748,42.2113828 159.439701,43.3844297 C158.266655,44.5574766 156.848256,45.144 155.184506,45.144 Z" id="Path"></path>
                    <path d="M191.49353,35.3785781 C193.513405,35.3785781 195.354787,35.0826094 197.017678,34.4906719 C198.680569,33.8987344 199.920045,33.3157344 200.736108,32.7416719 L204.95753,41.118 C203.931436,41.998 202.169889,42.889 199.672889,43.791 C197.175889,44.693 194.211389,45.144 190.779389,45.144 C187.567389,45.144 184.553905,44.5810234 181.738936,43.4550703 C178.923967,42.3291172 176.440975,40.7495859 174.289959,38.7164766 C172.138944,36.6833672 170.457405,34.3003203 169.245342,31.5673359 C168.03328,28.8343516 167.427248,25.8579063 167.427248,22.638 C167.427248,19.4180938 168.031733,16.4306484 169.240701,13.6756641 C170.44967,10.9206797 172.125709,8.52113281 174.268819,6.47702344 C176.411928,4.43291406 178.896467,2.84238281 181.722436,1.70542969 C184.548405,0.568476563 187.567389,0 190.779389,0 C194.211389,0 197.175889,0.451 199.672889,1.353 C202.169889,2.255 203.931436,3.146 204.95753,4.026 L200.736108,12.4023281 C199.920045,11.8220781 198.680569,11.2375313 197.017678,10.6486875 C195.354787,10.0598437 193.513405,9.76542188 191.49353,9.76542188 C189.253311,9.76542188 187.298748,10.1133828 185.629842,10.8093047 C183.960936,11.5052266 182.566514,12.4551797 181.446576,13.6591641 C180.326639,14.8631484 179.490639,16.2286094 178.938576,17.7555469 C178.386514,19.2824844 178.110483,20.8769688 178.110483,22.539 C178.110483,24.2230313 178.386514,25.8340156 178.938576,27.3719531 C179.490639,28.9098906 180.326639,30.2808516 181.446576,31.4848359 C182.566514,32.6888203 183.960936,33.6387734 185.629842,34.3346953 C187.298748,35.0306172 189.253311,35.3785781 191.49353,35.3785781 Z" id="Path"></path>
                    <path d="M219.834342,22.539 C219.834342,25.0188125 220.345842,27.2682266 221.368842,29.2872422 C222.391842,31.3062578 223.811873,32.9097656 225.628936,34.0977656 C227.445998,35.2857656 229.548545,35.8797656 231.936576,35.8797656 C234.346264,35.8797656 236.458092,35.2857656 238.272061,34.0977656 C240.08603,32.9097656 241.501506,31.3062578 242.51849,29.2872422 C243.535475,27.2682266 244.043967,25.0188125 244.043967,22.539 C244.043967,20.0591875 243.535475,17.8152734 242.51849,15.8072578 C241.501506,13.7992422 240.08603,12.1987422 238.272061,11.0057578 C236.458092,9.81277344 234.346264,9.21628125 231.936576,9.21628125 C229.548545,9.21628125 227.445998,9.81277344 225.628936,11.0057578 C223.811873,12.1987422 222.391842,13.7992422 221.368842,15.8072578 C220.345842,17.8152734 219.834342,20.0591875 219.834342,22.539 Z M209.562576,22.539 C209.562576,19.371 210.126498,16.4175 211.254342,13.6785 C212.382186,10.9395 213.957678,8.547 215.980819,6.501 C218.003959,4.455 220.377037,2.86 223.100053,1.716 C225.823069,0.572 228.768576,0 231.936576,0 C235.158545,0 238.12803,0.572 240.84503,1.716 C243.56203,2.86 245.927975,4.455 247.942865,6.501 C249.957756,8.547 251.519756,10.9395 252.628865,13.6785 C253.737975,16.4175 254.29253,19.371 254.29253,22.539 C254.29253,25.729 253.750006,28.6935 252.664959,31.4325 C251.579912,34.1715 250.03785,36.5695 248.038772,38.6265 C246.039694,40.6835 243.677701,42.284 240.952795,43.428 C238.227889,44.572 235.222483,45.144 231.936576,45.144 C228.592576,45.144 225.551076,44.572 222.812076,43.428 C220.073076,42.284 217.716069,40.6835 215.741053,38.6265 C213.766037,36.5695 212.242537,34.1715 211.170553,31.4325 C210.098569,28.6935 209.562576,25.729 209.562576,22.539 Z" id="Shape"></path>
                    <polygon id="Path" points="306.339838 0.792 306.339838 44.352 296.493463 44.352 296.493463 18.6991406 296.922463 11.4241875 295.251322 19.779375 287.93151 40.8478125 278.259416 40.8478125 270.963838 19.779375 269.301463 11.4241875 269.730463 18.6991406 269.730463 44.352 259.875322 44.352 259.875322 0.792 273.747697 0.792 282.50765 29.8557188 283.107322 33.3145313 283.70751 29.8557188 292.48551 0.792"></polygon>
                </g>
            </g>
        </g>
    </g>
</svg>