<?xml version="1.0" encoding="UTF-8"?>
<svg width="426px" height="305px" viewBox="0 0 426 305" version="1.1" xmlns="http://www.w3.org/2000/svg" xmlns:xlink="http://www.w3.org/1999/xlink">
    <title>Pasted-20230822-225013</title>
    <defs>
        <path d="M320.947526,294.953108 C320.633407,295.875834 290.548979,295.328283 287.311534,295.272514 C287.129143,295.269134 287.041325,295.176185 287.04808,294.993668 L287.078479,293.974613 L286.987283,273.061178 C286.986733,272.934778 286.904156,272.823403 286.783427,272.78623 C286.662699,272.749057 286.531838,272.794714 286.460375,272.89894 C285.918267,273.705058 286.151323,283.941234 286.080393,285.771477 C286.073638,285.974274 285.968932,286.075672 285.766275,286.075672 L271.940002,286.075672 C271.788063,286.075697 271.664112,285.953915 271.661349,285.801896 L271.565087,272.011704 C271.561709,271.751448 271.691748,271.62132 271.955202,271.62132 L318.931089,271.636529 C319.11348,271.636529 319.204676,271.545271 319.204676,271.362753 L319.204676,269.157337 C319.204676,268.9444 319.098281,268.837932 318.885491,268.837932 L107.114017,268.837932 C106.901227,268.837932 106.794832,268.9444 106.794832,269.157337 L106.794832,271.306984 C106.794832,271.516541 106.899538,271.62132 107.10895,271.62132 L153.015822,271.636529 C153.590017,271.636529 153.878803,271.925515 153.882181,272.503486 L153.978443,285.852595 C153.978443,286.001313 153.904135,286.075672 153.75552,286.075672 L139.665794,286.080742 C139.476647,286.080742 139.380385,285.986103 139.377008,285.796826 L139.149018,272.858381 C139.149924,272.752362 139.094269,272.652947 139.00302,272.597584 C138.91177,272.542221 138.798789,272.539323 138.706634,272.589979 C138.614479,272.640636 138.557152,272.737152 138.556247,272.843171 C138.373856,275.776967 138.309681,278.666824 138.363723,281.512741 C138.444785,285.886395 138.473495,290.011623 138.449852,293.888424 L138.525848,295.019017 C138.52999,295.094697 138.503168,295.168804 138.451557,295.224277 C138.399945,295.279749 138.327992,295.311808 138.252261,295.313073 C127.508064,295.367152 116.768933,295.360392 106.034869,295.292793 C105.453919,295.289413 105.276594,295.135626 105.502894,294.83143 L105.50796,272.93443 C105.50796,272.765432 105.42352,272.689384 105.254639,272.706283 C101.140703,273.157506 100.583396,270.419748 100.583396,266.9722 C100.590151,256.565336 100.59184,246.160163 100.588462,235.75668 C100.588462,234.502718 101.103549,233.346776 102.133722,232.288852 C102.268826,232.150274 102.268826,232.010006 102.133722,231.868048 C101.194744,230.914902 100.723567,230.046255 100.720189,229.262107 C100.710056,216.185084 100.710056,203.108061 100.720189,190.031038 C100.720189,189.488556 101.155902,188.5709 101.622013,188.114607 C106.278057,183.541536 112.651619,179.769512 119.298768,179.429827 C119.457516,179.419688 119.53689,179.336879 119.53689,179.181401 L119.612886,156.052409 C119.612886,155.852992 119.513246,155.753284 119.313967,155.753284 C114.76094,155.766804 110.207913,155.775254 105.654887,155.778634 C100.91778,155.778634 100.912713,152.467973 101.11537,148.71623 C101.125503,148.526953 101.04444,148.469494 100.872182,148.543852 C90.8001303,152.866807 80.4409812,154.212027 69.7947347,152.579512 C61.9265776,151.37794 53.4909809,147.803644 49.0730588,140.903477 C47.7253899,138.804529 47.8182744,136.599112 49.3517122,134.287227 C49.4699287,134.11485 49.4293973,133.993172 49.230118,133.922193 C41.4075587,131.230063 29.7699818,122.494585 35.0289304,112.679212 C35.1133708,112.520355 35.0728394,112.402057 34.9073362,112.324318 C25.3520597,107.847575 14.2565903,95.2437448 22.0639503,84.27243 C22.1619011,84.1304721 22.1467019,84.0037241 22.0183525,83.8921857 C-0.37017703,64.545357 -7.53410115,31.8037899 9.20536511,6.26658433 C9.2462014,6.19960501 9.32708672,6.1686725 9.40215403,6.19132749 C9.47722135,6.21398247 9.52752919,6.2845085 9.52454985,6.36291288 C8.92671177,40.0728354 33.3924753,55.2369771 62.7169398,61.8582974 C81.0117983,65.9852153 100.228746,67.4909826 118.949184,67.5619616 C119.121443,67.5653415 119.207572,67.4791528 119.207572,67.3033955 L119.207572,0.284074397 C119.207366,0.139543912 119.31929,0.0208225381 119.460893,0.0153684425 L119.921938,0 C120.009677,0 120.094778,0.0303835443 120.157797,0.0915344988 C120.220815,0.152685453 120.256365,0.236791636 120.256322,0.324633787 C120.367783,25.1030408 120.394804,49.8814477 120.337385,74.6598547 C120.334007,76.1335125 120.347517,77.6071704 120.377916,79.0808282 C120.388049,79.4492426 120.450535,79.4576925 120.565374,79.1061778 C121.19361,77.1846767 121.750917,75.1313576 122.683139,73.4684227 C125.679085,68.1179632 130.245622,64.7532239 136.382751,63.3742046 C136.555009,63.3336452 136.63945,63.2271768 136.636072,63.0547994 C136.575275,59.1458883 136.479013,54.8060336 137.705088,51.262157 C139.995111,44.6374567 144.762617,40.4682895 152.007604,38.7546552 C152.882406,38.5484784 154.952885,38.4436999 158.21904,38.44032 C195.288379,38.4166603 232.357717,38.3777909 269.427056,38.3237117 C275.42908,38.3135719 280.33169,40.365201 284.134886,44.4785991 C289.302639,50.0757948 289.409034,55.8909973 289.454632,63.1004287 C289.454632,63.2592863 289.532317,63.3589948 289.687687,63.3995542 C297.702771,65.3734445 302.843503,70.32676 305.109883,78.2595005 C305.471288,79.5269815 305.65199,79.5016318 305.65199,78.1834517 L305.65199,0.375333023 C305.65199,0.131976687 305.773585,0.0204383662 306.016773,0.0407180609 L306.452486,0.0711376029 C306.668653,0.0880373485 306.776737,0.204645593 306.776737,0.420962337 L306.797002,67.3084654 C306.797002,67.467323 306.876376,67.5467518 307.035124,67.5467518 C326.895508,67.5619616 347.019346,66.0156349 366.362954,61.4273539 C374.830638,59.4162842 382.700484,56.506148 389.972492,52.6969454 C407.593516,43.4696843 417.442645,26.3282723 416.393895,6.39840235 C416.390814,6.31575412 416.442187,6.24083882 416.520358,6.2139855 C416.598529,6.18713218 416.68505,6.21467793 416.733346,6.28179411 C433.558941,31.5350839 426.329154,64.4033991 404.259809,83.8871158 C404.128082,84.0020341 404.114571,84.1321621 404.219277,84.2774999 C406.34042,87.1031374 407.152737,90.3343688 406.656228,93.971194 C405.531481,102.19461 398.813403,108.85649 391.61908,112.304038 C391.470465,112.378397 391.433311,112.489935 391.507619,112.638653 C396.503113,122.403326 384.764208,131.483559 376.91125,133.988102 C376.728859,134.045561 376.691705,134.152029 376.799788,134.307507 C378.265674,136.382796 378.375446,138.522303 377.129106,140.72603 C373.648473,146.896127 365.962707,150.739129 359.224362,152.097869 C347.669537,154.426654 336.440652,153.284231 325.537706,148.670601 C325.368825,148.599622 325.296207,148.653701 325.31985,148.832838 C325.811293,152.944546 324.879071,155.722864 320.223027,155.768494 C315.703776,155.815813 311.186215,155.800603 306.670342,155.722864 C306.494706,155.719484 306.406888,155.805673 306.406888,155.98143 L306.411954,179.221961 C306.411954,179.377438 306.489639,179.455177 306.64501,179.455177 C312.942575,179.475457 319.422532,183.359018 323.870853,187.480866 C324.803075,188.347823 325.279319,189.321249 325.279319,190.674918 C325.289451,203.305788 325.287763,215.934968 325.274252,228.562458 C325.274252,230.255812 325.025997,230.833784 323.804989,231.868048 C323.764822,231.900978 323.740015,231.949163 323.736199,232.001666 C323.732384,232.05417 323.749882,232.106541 323.784723,232.146894 C324.519355,232.983431 325.208389,233.860528 325.264119,235.05196 C325.557972,240.963491 325.31985,247.792678 325.380647,252.766273 C325.444822,258.025474 325.436378,263.284675 325.355315,268.543876 C325.309717,271.342474 323.870853,272.969919 320.982991,272.675864 C320.810732,272.658964 320.724603,272.738393 320.724603,272.91415 L320.947526,294.953108 Z M95.4561743,103.010868 C82.0960132,115.427111 63.3857078,123.751926 44.9945872,119.148435 C44.758154,119.087596 44.7108674,119.156885 44.8527273,119.356302 C48.1712353,124.056121 56.4953706,126.555593 61.8911126,127.331292 C75.1144803,129.227443 87.1793257,126.215909 98.0856486,118.296688 C98.2883056,118.15135 98.3254594,118.186839 98.19711,118.403156 C91.0483851,130.662232 75.6160563,141.233023 60.9436912,138.08967 C59.9202735,137.869973 59.8307667,138.07108 60.6751707,138.692991 C71.5477175,146.673051 89.9388382,143.012566 100.639127,137.653656 C101.003909,137.471139 101.187989,137.177084 101.191367,136.77149 C101.27243,124.536074 101.235276,112.467966 101.079905,100.567165 C100.993776,93.6061595 107.686523,95.3451433 112.134844,95.3147238 C112.276703,95.3113438 112.347633,95.2403649 112.347633,95.101787 L112.469253,77.5345014 C112.472605,76.8686515 112.141599,76.5306566 111.476208,76.5205167 C91.2510421,76.2011115 70.5091005,73.5951708 50.9527023,67.7698284 C34.2740331,62.7962333 18.9784978,54.1722931 9.44855349,39.236298 C9.40547843,39.1593442 9.3135732,39.124226 9.23020564,39.1528645 C9.14683808,39.181503 9.09586455,39.2657029 9.10910305,39.3529062 C11.4396583,62.3703597 24.3995719,78.2341509 45.6582888,85.8745259 C58.3243498,90.4273174 71.3535046,91.8316862 84.7457531,90.0876325 C85.3064374,90.0166535 85.3435912,90.1248119 84.8572145,90.4121076 C70.0227238,99.152656 46.9654263,106.073102 31.0720529,96.2475897 C31.0197929,96.2123889 30.9508907,96.2216864 30.9093595,96.2695432 C30.8678283,96.3174 30.8659231,96.3896946 30.9048609,96.4402468 C39.7356386,107.720827 57.3009321,111.229214 70.7370896,109.966803 C79.7401258,109.120126 87.4106924,106.519255 95.344713,102.84863 C95.723006,102.672873 95.7601598,102.726952 95.4561743,103.010868 Z M330.710526,102.584994 C344.450669,109.52572 359.675274,112.126591 374.818817,108.709462 C382.013139,107.087087 391.462021,102.792861 395.591157,96.4909461 C395.736394,96.2746293 395.695863,96.23238 395.469562,96.364198 C389.511447,99.9165245 383.112553,101.476371 376.27288,101.043738 C364.067864,100.278179 352.176966,96.2780093 341.512142,90.3968978 C341.470453,90.3765242 341.449217,90.3292916 341.461635,90.284558 C341.474052,90.2398244 341.516589,90.2103187 341.562807,90.2143806 C343.650174,90.3259189 345.710519,90.4408372 347.743844,90.5591354 C381.410235,92.4958462 413.485768,76.3734889 416.779116,39.2717875 C416.781471,39.2305179 416.755955,39.1927043 416.716757,39.1796293 C416.677559,39.1665542 416.634474,39.1814851 416.611752,39.2160183 C406.164784,57.168618 385.949751,65.9598657 366.661873,70.4112587 C349.319502,74.4164984 331.987265,76.0490138 314.229447,76.5762859 C314.080832,76.5796658 314.006524,76.6557147 314.006524,76.8044324 L314.011591,94.9801088 C314.011591,95.1862857 314.114608,95.2910641 314.320643,95.2944441 C318.7031,95.4059824 325.10706,93.4946212 325.137459,100.303529 C325.188123,112.630203 325.250609,124.963637 325.324916,137.303832 C325.324916,137.472829 325.400913,137.596197 325.552906,137.673936 C333.797667,141.790714 342.500095,143.609127 351.660191,143.129174 C356.432762,142.880748 362.036228,141.552428 365.790448,138.449634 C365.873011,138.384925 365.897785,138.270534 365.849402,138.177426 C365.801019,138.084317 365.693211,138.038917 365.592858,138.06939 C359.148366,139.889493 351.128216,137.846313 345.357559,134.834779 C338.065285,131.022196 332.250719,125.600758 327.913859,118.570464 C327.863697,118.503676 327.872424,118.409686 327.934024,118.35329 C327.995624,118.296894 328.089953,118.296533 328.151981,118.352457 C339.595345,126.829369 352.447175,129.680356 366.707471,126.905418 C371.870158,125.896503 378.537572,123.549129 381.724353,119.356302 C381.792894,119.26273 381.794758,119.135225 381.728969,119.040515 C381.663179,118.945805 381.544713,118.90545 381.435567,118.940568 C363.247103,124.542834 343.604576,114.565224 330.609197,102.732022 C330.579501,102.700728 330.57577,102.652897 330.600253,102.617371 C330.624737,102.581845 330.670742,102.568338 330.710526,102.584994 L330.710526,102.584994 Z M144.413033,66.1575927 L281.743534,66.1981521 C282.290707,65.9784554 282.851392,65.9666256 283.425587,66.1626626 C283.545193,66.2026868 283.676654,66.1839581 283.780346,66.1121219 C283.884038,66.0402857 283.94783,65.9237452 283.952495,65.7976281 C284.060578,62.8570724 284.033557,60.0365049 283.871432,57.3359255 C283.385055,49.330516 278.480756,44.1135646 270.060359,44.1135646 C232.923468,44.1101846 195.786577,44.1118746 158.649686,44.1186345 C154.957951,44.1220144 152.433183,44.3400212 151.075382,44.7726547 C141.21612,47.9210773 141.829157,57.7161698 142.031814,65.8787469 C142.035192,66.0342246 142.116254,66.1136534 142.275002,66.1170333 L144.413033,66.1575927 Z M300.018126,129.181814 L297.920627,146.500673 C297.892107,146.713152 297.76333,146.896976 297.57611,146.992456 C292.415112,149.598397 287.47366,152.533882 282.751752,155.798913 C282.006988,156.316045 281.328087,157.289471 281.186227,158.303456 C279.662922,169.264631 278.414893,180.58408 277.442139,192.261804 C277.415118,192.589659 277.531646,192.652188 277.791723,192.449391 C284.68206,187.065133 292.236099,182.889205 300.453839,179.92161 C300.612587,179.864151 300.691961,179.752613 300.691961,179.586995 C300.828754,148.401895 300.702094,117.201584 300.63623,86.0164838 C300.615965,78.1935915 297.560911,72.0234944 289.794082,69.4378333 C286.804892,68.4441283 282.883479,68.5049674 279.559905,68.4846877 C259.000354,68.3596296 238.439115,68.3207602 217.876187,68.3680794 C189.129295,68.4390584 162.388707,68.1906321 140.866536,68.5658065 C131.73684,68.7229741 125.292348,75.7803079 125.277148,84.7997021 C125.231551,116.339697 125.170754,147.899972 125.332879,179.429827 C125.332879,179.598825 125.412253,179.710363 125.571001,179.764442 C133.768476,182.684718 141.268473,186.850506 148.070992,192.261804 C148.202719,192.366583 148.261827,192.334473 148.248317,192.165476 C147.468087,181.968169 146.475068,171.792832 145.269259,161.639465 C144.884211,158.414994 144.68662,156.589821 141.712629,154.551712 C137.558161,151.712555 133.273655,149.250262 128.859111,147.164833 C128.546297,147.015949 128.329225,146.718697 128.281538,146.373925 L126.097909,129.861184 C126.096289,129.823911 126.121927,129.790966 126.158436,129.783407 C126.194945,129.775849 126.231543,129.795908 126.244836,129.830764 L128.119413,136.06677 C128.163322,136.208728 128.257895,136.279707 128.403132,136.279707 L297.849697,136.391245 C298.035466,136.391245 298.145238,136.298297 298.179014,136.1124 C298.591084,133.756575 299.156834,131.43455 299.876267,129.146324 C299.886245,129.109813 299.922086,129.088913 299.958921,129.098129 C299.995756,129.107344 300.021429,129.143632 300.018126,129.181814 L300.018126,129.181814 Z M114.845381,99.487271 L107.174814,99.487271 C106.299006,99.487271 105.589023,100.197744 105.589023,101.074157 L105.589023,148.964656 C105.589023,150.423478 106.550789,151.606086 107.737187,151.606086 L114.283007,151.606086 C115.469406,151.606086 116.431171,150.423478 116.431171,148.964656 L116.431171,101.074157 C116.431171,100.197744 115.721189,99.487271 114.845381,99.487271 L114.845381,99.487271 Z M310.546156,151.139653 C312.49673,152.072519 316.732261,151.585807 318.91589,151.453989 C320.0913,151.38301 320.68576,150.754339 320.699271,149.567977 C320.864774,133.692356 320.905306,117.816735 320.820865,101.941114 C320.810732,100.303529 320.410485,99.684998 318.698033,99.5683897 C316.033094,99.3824925 313.363088,99.4348818 310.688016,99.7255574 C310.527466,99.7409701 310.384221,99.8403551 310.308034,99.9891934 C309.857123,100.87136 310.080045,101.51524 310.080045,102.351778 C310.090178,116.922738 310.088489,131.493699 310.074979,146.06466 C310.069913,147.36763 309.912853,149.060985 310.171241,150.642801 C310.206013,150.858801 310.3462,151.044582 310.546156,151.139653 Z M148.689096,157.31482 C149.489591,158.166568 150.507942,158.861147 151.74415,159.398559 C151.774449,159.415962 151.788989,159.451794 151.779392,159.485408 C151.769794,159.519023 151.738532,159.54176 151.703618,159.540517 C150.707221,159.358 149.747978,159.074084 148.825889,158.68877 C148.756589,158.659055 148.677206,158.664723 148.612824,158.703983 C148.548443,158.743243 148.507017,158.811243 148.501638,158.886497 C148.354712,161.284571 148.587767,164.184567 148.582701,166.060439 C148.548925,175.003784 148.707673,183.947129 149.058945,192.890475 C149.0657,193.062852 149.124808,193.21157 149.23627,193.336628 C151.60229,195.978058 153.036088,196.824736 153.036088,200.779276 C153.029333,210.138355 153.025955,219.502504 153.025955,228.871723 C153.025955,229.034126 153.155249,229.165779 153.314741,229.165779 L154.915731,229.165779 C155.091367,229.165779 155.180874,229.07959 155.184252,228.907213 C155.614898,207.476645 155.103189,188.854816 155.209584,162.531772 C155.224783,158.151358 158.153176,157.177932 162.089788,157.177932 C196.088874,157.171173 230.089648,157.171173 264.092111,157.177932 C268.692424,157.177932 270.673396,158.64314 270.703795,163.515337 C270.838899,185.326149 270.89463,207.14203 270.870987,228.962982 C270.870987,229.192818 270.984137,229.297597 271.210437,229.277317 L272.958354,229.130289 C273.144123,229.11339 273.237007,229.011991 273.237007,228.826094 C273.179588,219.223658 273.090081,209.619533 272.968487,200.013718 C272.927955,197.002183 274.98999,195.471066 276.727773,193.539425 C276.856123,193.394087 276.921986,193.22509 276.925364,193.032433 L277.487737,158.795238 C277.491115,158.528222 277.366143,158.436964 277.112822,158.521462 L275.299042,159.119713 C275.069364,159.197452 275.033899,159.143373 275.192647,158.957476 C275.591206,158.497803 276.077582,158.102349 276.651777,157.771114 L287.650985,150.480563 C287.723748,150.431164 287.766122,150.348566 287.766122,150.261374 C287.766122,150.174182 287.719789,150.094386 287.645918,150.04962 C280.993703,145.953121 273.546059,145.684415 264.583554,145.162213 C228.645717,143.083545 192.718013,143.255922 156.800441,145.679346 C150.163425,146.130569 144.402901,146.70854 138.470118,149.963431 C138.369795,150.019636 138.306029,150.124131 138.301674,150.239111 C138.297748,150.354091 138.353832,150.462907 138.449852,150.526193 L148.689096,157.31482 Z M268.945746,164.128798 C268.950812,161.061494 268.479635,158.734399 264.867274,158.759544 C230.496651,158.986205 196.126027,159.009865 161.755404,158.830728 C159.632572,158.820588 157.474276,159.079154 157.074028,161.34034 C156.552186,164.260616 157.04363,169.578966 157.053762,172.560081 C157.12807,191.369498 157.101049,210.160325 156.9727,228.932562 C156.971343,229.027562 157.008108,229.119138 157.074766,229.186795 C157.141423,229.254451 157.232406,229.292527 157.327349,229.292527 L268.900148,229.292527 C269.042008,229.292527 269.111249,229.223238 269.107989,229.08466 C268.979522,207.409046 268.92548,185.757092 268.945746,164.128798 Z M109.439506,190.005688 L107.129216,192.008308 C106.990734,192.126606 106.921493,192.278704 106.921493,192.464601 L106.921493,228.4205 C106.921493,228.579358 107.000867,228.658786 107.159615,228.658786 L150.629536,228.663856 C150.781529,228.663856 150.857525,228.587807 150.857525,228.43571 C150.871036,220.959262 150.904812,213.481125 150.958854,206.001297 C150.968987,204.749026 151.17671,200.764066 149.682115,199.658823 C146.321387,196.968383 142.756313,194.646358 138.986893,192.692748 C129.679871,187.87632 119.187306,180.859546 109.439506,190.005688 Z M275.760086,200.368612 C274.934259,201.81861 275.395304,203.694482 275.395304,204.967033 C275.368283,212.406301 275.373349,220.072026 275.410503,227.964207 C275.413881,228.44078 275.652003,228.677376 276.124869,228.674032 L319.057749,228.648647 C319.099721,228.648647 319.133746,228.616868 319.133746,228.577668 C319.086459,216.676867 319.07126,205.729212 319.088148,195.734702 C319.098281,192.327713 319.670787,191.622994 316.448541,189.660933 C311.067998,185.003364 304.885272,184.310474 297.900361,187.582265 C290.114956,191.22923 283.785303,194.654808 278.911402,197.859 C277.492804,198.791866 276.442365,199.628403 275.760086,200.368612 Z M318.946288,235.467694 C318.982568,235.467694 319.017362,235.482116 319.043016,235.507787 C319.068669,235.533459 319.083082,235.568277 319.083082,235.604582 L319.083082,266.804892 C319.083082,266.880493 319.021837,266.94178 318.946288,266.94178 L107.058286,266.94178 C106.982737,266.94178 106.921493,266.880493 106.921493,266.804892 L106.921493,235.604582 C106.921493,235.568277 106.935905,235.533459 106.961559,235.507787 C106.987212,235.482116 107.022006,235.467694 107.058286,235.467694 Z" id="path-1"></path>
        <path d="M95.4354729,103.263963 C87.5292571,106.934208 79.885572,109.534811 70.914087,110.381401 C57.5250166,111.643681 40.0212808,108.135656 31.2214505,96.8562405 C31.1826492,96.8056935 31.1845477,96.7334064 31.2259334,96.6855545 C31.267319,96.6377026 31.3359797,96.6284061 31.3880566,96.6636033 C47.2257316,106.488101 70.2022247,99.5683697 84.9847279,90.8287235 C85.4694001,90.5414575 85.4323765,90.4333103 84.8736571,90.5042819 C71.5283418,92.2481556 58.5448477,90.8439317 45.9231749,86.2916102 C24.7389594,78.6520238 11.8244638,62.7898701 9.50207598,39.7747924 C9.48888388,39.6875981 9.53967877,39.6034068 9.62275417,39.5747713 C9.70582957,39.5461358 9.79741272,39.5812503 9.84033681,39.6581962 C19.3368834,54.5926497 34.5788155,63.2156997 51.1990342,68.1887815 C70.6868969,74.0135225 91.3561483,76.6191943 111.510435,76.9385665 C112.173494,76.9487053 112.50334,77.2866653 112.5,77.9524466 L112.378806,95.5179188 C112.378806,95.6564825 112.308125,95.7274541 112.166762,95.7308337 C107.734031,95.7612501 101.064739,94.0224457 101.150566,100.982732 C101.305392,112.882305 101.342416,124.949168 101.261637,137.18332 C101.258271,137.588872 101.074836,137.882898 100.711332,138.065396 C90.048543,143.423752 71.7218741,147.083859 60.8874302,139.104623 C60.0459853,138.482777 60.1351785,138.281691 61.1550097,138.501365 C75.7759554,141.644393 91.1542015,131.074693 98.2778736,118.816883 C98.4057732,118.600589 98.3687497,118.565103 98.1668029,118.710426 C87.2987012,126.628829 75.2761372,129.640053 62.0991108,127.744097 C56.7222782,126.968479 48.4273148,124.469264 45.1204366,119.76993 C44.9790738,119.570534 45.0261947,119.501252 45.2617993,119.562085 C63.5884682,124.1651 82.2332032,115.841145 95.5465436,103.426183 C95.8494638,103.142297 95.8124402,103.088223 95.4354729,103.263963 Z" id="path-2"></path>
        <path d="M330.740963,103.061085 C330.701091,103.044406 330.654985,103.057932 330.630447,103.093506 C330.605909,103.12908 330.609648,103.176977 330.63941,103.208313 C343.663544,115.057595 363.349535,125.048764 381.578245,119.438885 C381.687633,119.403719 381.806361,119.444129 381.872296,119.538968 C381.938231,119.633806 381.936363,119.761484 381.86767,119.855184 C378.673838,124.053708 371.99167,126.404273 366.81756,127.414559 C352.52571,130.193268 339.645442,127.338406 328.176757,118.849975 C328.114591,118.793975 328.020054,118.794336 327.958318,118.850809 C327.896581,118.907282 327.887835,119.001399 327.938108,119.068278 C332.284564,126.108125 338.111996,131.536931 345.420406,135.354694 C351.203832,138.370322 359.241728,140.416277 365.70048,138.593701 C365.801056,138.563187 365.909103,138.608649 365.957593,138.701884 C366.006083,138.795119 365.981254,138.909665 365.898508,138.974462 C362.13598,142.081472 356.520116,143.411597 351.736984,143.660361 C342.55662,144.140966 333.834935,142.320082 325.57193,138.19771 C325.419601,138.119865 325.343437,137.99633 325.343437,137.827103 C325.268965,125.470139 325.206341,113.119945 325.155564,100.776519 C325.125098,93.9583592 318.706968,95.8723178 314.314813,95.7606279 C314.108323,95.7572434 314.005078,95.6523225 314.005078,95.4458655 L314,77.24549 C314,77.0965701 314.074472,77.0204179 314.223416,77.0170334 C332.020527,76.4890448 349.391116,74.8543109 366.771861,70.8436284 C386.102418,66.3861864 406.362182,57.5829922 416.832265,39.6059965 C416.855038,39.5714163 416.898219,39.5564652 416.937504,39.569558 C416.976788,39.5826508 417.002361,39.6205158 417,39.6618414 C413.699365,76.8139608 381.552857,92.958227 347.811972,91.0188843 C345.774148,90.9004253 343.709243,90.7853509 341.617257,90.673661 C341.570937,90.6695936 341.528306,90.6991394 341.515861,90.7439338 C341.503416,90.7887282 341.524699,90.836025 341.566481,90.8564263 C352.254903,96.7455297 364.172112,100.751135 376.404135,101.517734 C383.258942,101.950956 389.671995,100.388989 395.643294,96.8318355 C395.870095,96.6998384 395.910716,96.7421451 395.765158,96.9587558 C391.626885,103.269235 382.157096,107.569296 374.946854,109.193876 C359.769803,112.615648 344.511509,110.011243 330.740963,103.061085 Z" id="path-3"></path>
        <path d="M281.227331,66.6091954 C280.96401,59.6251392 282.564195,50.3958383 274.588586,47.4470145 C273.147069,46.9158814 270.517228,46.6503148 266.699064,46.6503148 C230.629056,46.6606615 194.559049,46.6710083 158.494106,46.6606615 C154.736708,46.6572126 152.106867,46.9227792 150.604583,47.4573613 C142.411227,50.364798 144.001285,59.3923373 143.965838,66.5678084 L141.828881,66.5264214 C141.670213,66.5229725 141.589191,66.4419229 141.585815,66.2832728 C141.38326,57.9541391 140.770531,47.9591786 150.624838,44.7465128 C151.981958,44.3050515 154.505457,44.0825963 158.195337,44.0791474 C195.313567,44.0722496 232.431797,44.0705251 269.550027,44.073974 C277.966193,44.073974 282.868028,49.3973769 283.35416,57.566136 C283.516204,60.3218204 283.543212,63.1999413 283.435182,66.2004988 C283.43052,66.3291892 283.36676,66.4481077 283.26312,66.5214098 C283.15948,66.5947118 283.028085,66.6138226 282.908539,66.5729818 C282.334633,66.3729446 281.77423,66.3850158 281.227331,66.6091954 Z" id="path-4"></path>
        <path d="M281.5,66.1083744 L144.602011,66.0678725 C144.637364,59.0458634 143.051517,50.2113962 151.223174,47.3661409 C152.72148,46.8429919 155.344356,46.583105 159.091804,46.5864801 C195.061238,46.5966056 231.035722,46.5864801 267.010207,46.5763547 C270.81826,46.5763547 273.441136,46.8362416 274.878836,47.3560154 C282.833324,50.2417726 281.237376,59.2736863 281.5,66.1083744 Z" id="path-5"></path>
        <path d="M299.623412,128.902811 C298.904086,131.190789 298.338419,133.512563 297.92641,135.868133 C297.892639,136.05401 297.782883,136.146948 297.597141,136.146948 L128.175558,136.035422 C128.030342,136.035422 127.935783,135.964451 127.89188,135.822508 L126.017579,129.587177 C126.004289,129.552325 125.967697,129.532267 125.931193,129.539825 C125.89469,129.547383 125.869055,129.580324 125.870675,129.617593 L128.053982,146.128548 C128.101661,146.473283 128.318702,146.770503 128.631469,146.919371 C133.045363,149.004574 137.329237,151.4666 141.483093,154.305451 C144.456645,156.343339 144.654207,158.168314 145.039198,161.392437 C146.24483,171.544706 147.237702,181.718942 148.017817,191.915145 C148.031325,192.084125 147.972226,192.116231 147.840518,192.011464 C141.039002,186.60075 133.540111,182.435414 125.343844,179.515454 C125.18512,179.46138 125.105758,179.349854 125.105758,179.180875 C124.943656,147.65443 125.004444,116.097569 125.050035,84.5609859 C125.065232,75.5425674 131.508774,68.485997 140.637125,68.3288464 C162.156123,67.9537126 188.892768,68.202112 217.635422,68.1311408 C238.195319,68.0838266 258.753526,68.1226918 279.310046,68.2477364 C282.63313,68.2680139 286.553964,68.2071814 289.542714,69.2007789 C297.308398,71.7861603 300.363001,77.95559 300.383264,85.777636 C300.449118,116.959363 300.57576,148.156298 300.438986,179.338025 C300.438986,179.503625 300.359624,179.615151 300.200899,179.672604 C291.984371,182.639879 284.431445,186.815354 277.542124,192.19903 C277.282086,192.401805 277.165575,192.339283 277.192592,192.011464 C278.165202,180.335003 279.413048,169.016777 280.936128,158.056788 C281.077967,157.042913 281.756768,156.069593 282.501422,155.552517 C287.222634,152.287839 292.163358,149.352671 297.323595,146.747012 C297.510787,146.651542 297.639545,146.467738 297.668061,146.255283 L299.765251,128.938297 C299.768554,128.90012 299.742884,128.863835 299.706055,128.85462 C299.669225,128.845406 299.633389,128.866304 299.623412,128.902811 Z M133.205776,132.8113 C136.290773,135.391611 141.093036,134.910021 146.715938,134.92016 C193.178331,134.991131 239.650857,135.178698 286.11325,134.874535 C293.868803,134.818772 295.732972,129.551691 295.683311,122.915879 C295.584379,110.127535 295.532033,97.3341218 295.525279,84.5356391 C295.520213,79.8920913 294.268991,76.308043 289.856786,74.5591086 C288.58699,74.0589302 286.503308,73.8054615 283.60574,73.7987023 C257.277726,73.7547677 230.9514,73.7750452 204.626763,73.8595348 C184.34379,73.9254367 164.060817,73.646621 143.777845,73.7581473 C140.10354,73.7750452 137.540307,74.0538608 136.088146,74.5945942 C132.045736,76.0985089 130.021153,79.4662638 130.014399,84.6978591 C130.000891,98.5304943 130.041416,112.373268 130.135975,126.226181 C130.156238,128.923089 131.179505,131.118128 133.205776,132.8113 Z" id="path-6"></path>
        <path d="M133.190586,133.498839 C131.166424,131.811494 130.144222,129.624007 130.12398,126.93638 C130.029519,113.131135 129.989036,99.3359932 130.00253,85.5509556 C130.009277,80.3373622 132.031753,76.9811956 136.069957,75.4824558 C137.520607,74.9435831 140.081172,74.6657269 143.751653,74.6488871 C164.013519,74.5377446 184.275385,74.8156008 204.53725,74.7499257 C230.834493,74.6657269 257.133423,74.6455191 283.43404,74.6893026 C286.328592,74.6960385 288.410106,74.948635 289.678581,75.4470923 C294.086195,77.1900087 295.336115,80.7617244 295.341175,85.3892938 C295.347923,98.1437373 295.400213,110.893129 295.499043,123.637468 C295.548652,130.250447 293.686423,135.499404 285.938941,135.554975 C239.524897,135.858091 193.100733,135.67117 146.686689,135.600443 C141.069638,135.590339 136.272373,136.070272 133.190586,133.498839 Z M131.682585,129.366359 C133.36264,133.817111 137.092159,134.074759 141.165786,134.201058 C147.638045,134.398083 156.159769,134.185902 160.567382,134.18085 C201.894031,134.123595 243.222367,134.137066 284.55239,134.221265 C290.675481,134.231369 294.091255,131.998415 294.136799,125.511735 C294.23126,112.13422 294.238007,98.760073 294.15704,85.3892938 C294.130052,80.8796028 292.487106,77.9562184 289.228205,76.6191405 C287.905752,76.0768998 285.281088,75.8074634 281.354213,75.8108002 C234.970532,75.8175673 188.58685,75.8192513 142.203169,75.8158833 C133.802895,75.8158833 131.24739,79.0339638 131.25245,87.0513793 C131.255824,99.8731819 131.254137,112.698352 131.24739,125.526891 C131.24739,127.322011 131.392455,128.601833 131.682585,129.366359 Z" id="path-7"></path>
        <path d="M140.950914,134.135499 C136.863931,134.007855 133.122185,133.747462 131.436622,129.249294 C131.145541,128.476623 131,127.183166 131,125.368922 C131.006769,112.403716 131.008462,99.4419127 131.005077,86.4835137 C131,78.380685 133.563883,75.1283209 141.991698,75.1283209 C188.527452,75.1317248 235.063206,75.1300228 281.59896,75.1231836 C285.53871,75.1198113 288.171979,75.3921181 289.498767,75.9401355 C292.768354,77.2914579 294.416685,80.2459865 294.443762,84.8037213 C294.524994,98.3169453 294.518225,111.833573 294.423455,125.353605 C294.377762,131.909391 290.950789,134.166133 284.807622,134.155922 C243.342096,134.070826 201.878262,134.057211 160.41612,134.115076 C155.994056,134.120181 147.444393,134.334623 140.950914,134.135499 Z M133.381112,126.282852 C133.406497,131.174162 137.468094,131.674526 141.235226,131.674526 C189.642699,131.67793 238.050173,131.679632 286.457646,131.679632 C291.752954,131.679632 292.19973,127.72778 292.204807,123.505323 C292.22173,110.604789 292.209884,97.7008513 292.169268,84.7935098 C292.143883,77.9109558 288.249826,77.54791 282.355433,77.54791 C235.291671,77.5416398 188.229602,77.599505 141.169225,77.722043 C136.610082,77.7322545 133.294803,78.9065775 133.288803,84.0633872 C133.282956,98.1348402 133.313418,112.207995 133.381112,126.282852 Z" id="path-8"></path>
        <path d="M141.425249,131.210052 C137.668155,131.210052 133.61738,130.714716 133.592063,125.872549 C133.52455,111.939106 133.494169,98.0073467 133.5,84.0772726 C133.505984,78.9722745 136.812429,77.8097502 141.359424,77.7996413 C188.294403,77.6783344 235.23107,77.6210506 282.169424,77.6272578 C288.048112,77.6272578 291.931792,77.9866561 291.957109,84.8000595 C291.997617,97.5777181 292.009432,110.352007 291.992554,123.122927 C291.98749,127.30296 291.541905,131.215107 286.260707,131.215107 C237.982221,131.215107 189.703735,131.213422 141.425249,131.210052 Z" id="path-9"></path>
        <path d="M114.391121,100.164204 C115.279681,100.164204 116,100.874221 116,101.750072 L116,149.609853 C116,151.067739 115.024232,152.249589 113.820561,152.249589 L107.179439,152.249589 C105.975768,152.249589 105,151.067739 105,149.609853 L105,101.750072 C105,100.874221 105.720319,100.164204 106.608879,100.164204 L114.391121,100.164204 Z M114.332472,101.718101 C114.332404,101.679132 114.316633,101.641786 114.28863,101.614278 C114.260627,101.58677 114.222684,101.571421 114.18315,101.571421 L106.709318,101.58429 C106.669783,101.584358 106.631895,101.599902 106.603988,101.627505 C106.576081,101.655108 106.560509,101.692508 106.560509,101.731477 L106.646967,150.574092 C106.647035,150.613061 106.662806,150.650407 106.690809,150.677915 C106.718813,150.705423 106.756755,150.720772 106.79629,150.720772 L114.270121,150.707903 C114.309656,150.707835 114.347544,150.692291 114.375451,150.664688 C114.403358,150.637085 114.41893,150.599685 114.41893,150.560716 L114.332472,101.718101 Z" id="path-10"></path>
        <path d="M310.530757,151.692299 C310.32786,151.597507 310.185612,151.412273 310.150328,151.196908 C309.88814,149.619742 310.047509,147.931366 310.05265,146.632226 C310.066359,132.104104 310.068073,117.575981 310.057791,103.047859 C310.057791,102.21378 309.83159,101.571793 310.289133,100.69222 C310.36644,100.543819 310.511792,100.444726 310.674704,100.429359 C313.389119,100.139538 316.098393,100.087303 318.802527,100.272653 C320.540164,100.388919 320.946298,101.005631 320.95658,102.638402 C321.042262,118.467349 321.001135,134.296296 320.833197,150.125244 C320.819488,151.308118 320.216285,151.93494 319.023587,152.00571 C316.807843,152.137141 312.510019,152.622423 310.530757,151.692299 Z M319.445144,102.01158 C319.445144,101.785443 319.258708,101.602123 319.028728,101.602123 L312.016488,101.602123 C311.786508,101.602123 311.600072,101.785443 311.600072,102.01158 L311.600072,150.216234 C311.600072,150.442371 311.786508,150.62569 312.016488,150.62569 L319.028728,150.62569 C319.258708,150.62569 319.445144,150.442371 319.445144,150.216234 L319.445144,102.01158 Z" id="path-11"></path>
        <path d="M107.161095,101.056105 L114.536566,101.056105 C114.616648,101.056104 114.681566,101.121023 114.681566,101.201104 C114.681566,101.201104 114.681566,101.201104 114.681566,101.201105 L114.681426,150.158352 C114.681425,150.238433 114.616507,150.303352 114.536425,150.303352 L107.160954,150.303352 C107.080873,150.303352 107.015954,150.238434 107.015954,150.158352 C107.015954,150.158352 107.015954,150.158352 107.015955,150.158352 L107.016095,101.201105 C107.016096,101.121023 107.081014,101.056105 107.161095,101.056105 Z" id="path-12"></path>
        <rect id="path-13" x="312" y="101.165846" width="7.5" height="49.0804598" rx="0.405"></rect>
        <path d="M276.345831,158.259442 C277.774598,156.589407 276.783105,152.323229 274.917065,151.33639 C273.269661,150.462574 270.981601,149.862037 268.052884,149.534777 C239.691107,146.371834 211.044594,145.896127 182.560788,147.475068 C174.052594,147.947401 165.569822,148.703134 157.112474,149.742267 C151.168602,150.476069 147.817865,150.607648 147.924641,157.803978 L137.648709,151.027687 C137.552345,150.964516 137.49606,150.855898 137.5,150.741127 C137.50437,150.626356 137.568365,150.522051 137.669047,150.465948 C143.623088,147.216972 149.404254,146.640051 156.065051,146.189648 C192.11132,143.770629 228.167759,143.598564 264.234366,145.673456 C273.228985,146.194709 280.703315,146.462926 287.379366,150.55198 C287.453501,150.596665 287.5,150.676316 287.5,150.76335 C287.5,150.850383 287.457475,150.932831 287.38445,150.98214 L276.345831,158.259442 Z" id="path-14"></path>
        <path d="M276.660959,158.415439 C276.084695,158.746455 275.596565,159.141647 275.196569,159.601017 C275.037249,159.786791 275.072842,159.840834 275.303348,159.763147 L277.123666,159.165291 C277.377901,159.080848 277.503323,159.172047 277.5,159.438886 L276.935533,193.653453 C276.932143,193.845983 276.866042,194.014868 276.73723,194.16011 C274.993182,196.090474 272.923713,197.62058 272.964391,200.630124 C273.086423,210.229591 273.176253,219.827368 273.233879,229.423457 C273.233879,229.609232 273.14066,229.710563 272.954221,229.727452 L271.200004,229.874382 C270.972888,229.894649 270.85933,229.78994 270.85933,229.560255 C270.883058,207.753725 270.827127,185.952262 270.691535,164.155866 C270.661027,159.286889 268.672914,157.82265 264.056016,157.82265 C229.930976,157.815894 195.807631,157.815894 161.685981,157.82265 C157.735178,157.82265 154.796228,158.795432 154.780974,163.17295 C154.674195,189.478597 155.187749,208.088119 154.755551,229.504523 C154.752161,229.676786 154.662331,229.762918 154.486062,229.762918 L152.8793,229.762918 C152.719233,229.762918 152.589473,229.631352 152.589473,229.469057 C152.589473,220.10603 152.592863,210.74807 152.599643,201.395176 C152.599643,197.443249 151.160676,196.597132 148.786126,193.957447 C148.674263,193.832472 148.614942,193.683852 148.608162,193.511589 C148.255624,184.574154 148.096303,175.63672 148.130201,166.699285 C148.135286,164.824653 147.90139,161.926574 148.048846,159.530085 C148.054245,159.454881 148.09582,159.386925 148.160434,159.347692 C148.225047,159.308458 148.304717,159.302793 148.374266,159.332488 C149.29968,159.717548 150.262381,160.001276 151.262369,160.183672 C151.297409,160.184914 151.328784,160.162193 151.338416,160.1286 C151.348048,160.095008 151.333456,160.059199 151.303047,160.041808 C150.062383,159.504752 149.040361,158.810631 148.23698,157.959447 C148.130201,150.75478 151.481011,150.623049 157.425012,149.888396 C165.882544,148.84806 174.3655,148.091452 182.873878,147.618572 C211.358304,146.037801 240.005439,146.514059 268.367832,149.680667 C271.296613,150.008305 273.584723,150.609539 275.232162,151.484367 C277.098243,152.472349 278.089757,156.743469 276.660959,158.415439 Z" id="path-15"></path>
        <path d="M264.750628,158.760465 C268.370269,158.735291 268.842396,161.06511 268.837319,164.136005 C268.817013,185.789622 268.871164,207.466925 268.99989,229.167916 C269.003156,229.306656 268.933776,229.376026 268.79163,229.376026 L156.993976,229.376026 C156.898841,229.376026 156.807675,229.337906 156.740884,229.27017 C156.674092,229.202435 156.637253,229.110751 156.638612,229.01564 C156.76722,210.221425 156.794295,191.408598 156.719838,172.577159 C156.709685,169.592554 156.217251,164.267978 156.740144,161.344283 C157.141199,159.080449 159.303845,158.82158 161.430955,158.831732 C195.870846,159.011079 230.310737,158.987392 264.750628,158.760465 Z M160.831912,219.980611 C160.836989,222.934761 163.116398,225.55898 166.136996,225.564056 C177.901251,225.580975 189.658737,225.577591 201.409455,225.553904 C206.181492,225.543752 209.242702,224.25956 209.278239,218.904528 C209.383156,204.289437 209.425461,189.676038 209.405155,175.064331 C209.400078,169.257547 205.734748,168.496169 200.637806,168.475865 C190.071637,168.42849 179.50716,168.448794 168.944375,168.536775 C164.512472,168.572306 160.801452,169.348913 160.801452,174.424772 C160.804837,189.615128 160.81499,204.800407 160.831912,219.980611 Z M264.833124,174.478627 C264.830339,172.880685 264.19279,171.349297 263.060731,170.221352 C261.928672,169.093406 260.394836,168.4613 258.796649,168.46408 L221.991097,168.528349 C218.663066,168.534175 215.969882,171.236379 215.975682,174.563902 L216.054277,219.586673 C216.057062,221.184615 216.694611,222.716003 217.82667,223.843949 C218.958729,224.971894 220.492565,225.604 222.090752,225.60122 L258.896304,225.536951 C262.224335,225.531125 264.917519,222.828921 264.911719,219.501399 L264.833124,174.478627 Z" id="path-16"></path>
        <path d="M166.878501,225.859617 C163.833584,225.8545 161.535823,223.208653 161.530705,220.230156 C161.513647,204.924846 161.503412,189.614419 161.5,174.298873 C161.5,169.181182 165.240898,168.398175 169.708483,168.362351 C180.356311,168.273644 191.005845,168.253174 201.657085,168.300939 C206.795063,168.32141 210.489903,169.089063 210.495021,174.943703 C210.515491,189.675831 210.472845,204.409665 210.367083,219.145206 C210.331261,224.544371 207.245403,225.839147 202.434946,225.849382 C190.589621,225.873264 178.737473,225.876676 166.878501,225.859617 Z" id="path-17"></path>
        <path d="M222.082508,168.74686 L259.004485,168.74686 C262.282295,168.746793 264.939485,171.403983 264.939485,174.681793 C264.939485,174.681815 264.939485,174.681837 264.939418,174.68186 L264.938906,219.909938 C264.938802,223.187721 262.281623,225.84487 259.003839,225.844938 L222.082508,225.844938 C218.804698,225.844938 216.147508,223.187748 216.147508,219.909938 L216.147508,174.68186 C216.147508,171.40405 218.804698,168.74686 222.082508,168.74686 Z" id="path-18"></path>
        <path d="M149,200.328407 C147.351588,199.575677 145.765286,198.841429 144.241093,198.125663 C138.114105,195.252517 131.82429,192.801103 125.371648,190.771419 C119.701246,188.987045 114.468966,187.989005 109,190.731094 C118.689034,181.637842 129.118343,188.61404 138.369256,193.402615 C142.115951,195.344928 145.659533,197.653526 149,200.328407 Z" id="path-19"></path>
        <path d="M317.5,190.468177 C313.676068,188.976727 310.046777,188.618436 306.612128,189.393304 C296.220334,191.738481 285.332462,196.248833 276,201.330049 C276.695887,200.579181 277.767277,199.730597 279.21417,198.784298 C284.185282,195.533965 290.641182,192.059057 298.58187,188.359575 C305.706097,185.04067 312.01214,185.743537 317.5,190.468177 Z" id="path-20"></path>
        <path d="M149.70957,200.086761 C151.20238,201.183752 150.994905,205.138955 150.984784,206.381875 C150.930807,213.805848 150.897071,221.228144 150.883577,228.648762 C150.883577,228.799724 150.807671,228.875205 150.65586,228.875205 L107.237838,228.870173 C107.079279,228.870173 107,228.791338 107,228.633666 L107,192.946261 C107,192.761752 107.069158,192.61079 107.207475,192.493375 L109.515007,190.50571 C115.010574,187.768266 120.268305,188.764615 125.966288,190.545966 C132.450315,192.572211 138.770724,195.019472 144.927515,197.887749 C146.459122,198.602302 148.05314,199.335306 149.70957,200.086761 Z M116.245306,217.029724 C116.280729,222.102046 118.234034,225.448369 123.830809,225.574171 C130.274354,225.711714 135.704137,225.745261 140.120158,225.674812 C145.858624,225.584235 149.891864,224.119904 149.886683,217.668797 C149.883309,215.025285 149.884996,212.375064 149.891864,209.718134 C149.911985,203.775265 147.391918,201.81276 141.451037,201.530964 C135.800284,201.262587 130.152905,201.265942 124.508899,201.541028 C114.534899,202.029139 116.184582,209.531947 116.245306,217.029724 Z" id="path-21"></path>
        <path d="M316.806638,190.24659 C320.038672,192.189312 319.464427,192.887086 319.454264,196.260495 C319.437324,206.156497 319.45257,216.996251 319.5,228.779756 C319.5,228.81857 319.465872,228.850036 319.423773,228.850036 L276.360477,228.875171 C275.886175,228.878482 275.647329,228.644217 275.643941,228.172342 C275.606675,220.357947 275.601593,212.767777 275.628696,205.401831 C275.628696,204.141822 275.166251,202.284439 275.994587,200.848733 C285.172343,195.889018 295.879726,191.486519 306.099255,189.19742 C309.476968,188.44108 313.046096,188.790803 316.806638,190.24659 Z M310.5152,208.727199 C310.504889,206.780747 309.712244,204.918064 308.311639,203.548921 C306.911034,202.179779 305.017199,201.416331 303.046762,201.426428 L283.766663,201.526276 C281.796234,201.536461 279.910605,202.31945 278.524592,203.702995 C277.138579,205.08654 276.365717,206.957308 276.375926,208.903751 L276.426693,218.461592 C276.437004,220.408044 277.229649,222.270727 278.630254,223.63987 C280.030859,225.009013 281.924693,225.77246 283.895131,225.762363 L303.17523,225.662515 C305.145659,225.65233 307.031288,224.869341 308.417301,223.485796 C309.803314,222.102251 310.576176,220.231484 310.565967,218.285041 L310.5152,208.727199 Z" id="path-22"></path>
        <path d="M123.272259,225.730137 C117.639712,225.600916 115.673923,222.163639 115.638274,216.95345 C115.577162,209.251882 113.916935,201.545144 123.954683,201.043767 C129.634762,200.761204 135.318235,200.757758 141.005104,201.033429 C146.983955,201.322884 149.520129,203.338731 149.49988,209.443129 C149.492968,212.172275 149.49127,214.89453 149.494665,217.609893 C149.49988,224.236343 145.440862,225.740475 139.665719,225.833514 C135.221474,225.905877 129.756987,225.871419 123.272259,225.730137 Z M144.508894,208.729829 C144.508894,207.479483 143.510216,206.465878 142.278284,206.465878 L122.966696,206.465878 C121.734764,206.465878 120.736085,207.479483 120.736085,208.729829 L120.736085,218.19914 C120.736085,219.449486 121.734764,220.463091 122.966696,220.463091 L142.278284,220.463091 C143.510216,220.463091 144.508894,219.449486 144.508894,218.19914 L144.508894,208.729829 Z" id="path-23"></path>
        <path d="M309.999901,218.176268 C310.010053,220.179091 309.241491,222.104047 307.86319,223.527668 C306.48489,224.951288 304.609752,225.756958 302.650287,225.767438 L283.477466,225.870177 C281.517993,225.880567 279.634696,225.095006 278.241884,223.686205 C276.849072,222.277404 276.060837,220.360766 276.050584,218.357933 L276.000099,208.52324 C275.989947,206.520416 276.758509,204.59546 278.13681,203.171839 C279.51511,201.748219 281.390248,200.94255 283.349713,200.93207 L302.522534,200.82933 C304.482007,200.81894 306.365304,201.604502 307.758116,203.013303 C309.150928,204.422104 309.939163,206.338742 309.949416,208.341574 L309.999901,218.176268 Z M304.909471,208.431503 C304.905515,207.273304 303.983735,206.337672 302.850609,206.341688 L283.303625,206.411433 C282.170499,206.415477 281.255122,207.357654 281.259051,208.515853 L281.29267,218.35065 C281.296626,219.50885 282.218406,220.444482 283.351532,220.440465 L302.898517,220.37072 C304.031643,220.366676 304.94702,219.424499 304.94309,218.2663 L304.909471,208.431503 Z" id="path-24"></path>
        <rect id="path-25" x="120.5" y="206.338259" width="24" height="14.0229885" rx="2.19"></rect>
        <path d="M283.420239,206.720749 L303.086776,206.720749 C304.207914,206.720749 305.116776,207.629611 305.116776,208.750749 L305.116776,218.482951 C305.116776,219.604089 304.207914,220.512951 303.086776,220.512951 L283.420239,220.512951 C282.299101,220.512951 281.390239,219.604089 281.390239,218.482951 L281.390239,208.750749 C281.390239,207.629611 282.299101,206.720749 283.420239,206.720749 Z" id="path-26"></path>
        <path d="M319.5,267.799841 C319.5,267.876831 319.438658,267.939245 319.362988,267.939245 L107.137012,267.939245 C107.061342,267.939245 107,267.876831 107,267.799841 L107,236.026103 C107,235.989131 107.014435,235.953673 107.04013,235.92753 C107.065824,235.901387 107.100674,235.8867 107.137012,235.8867 L319.362988,235.8867 C319.399326,235.8867 319.434176,235.901387 319.45987,235.92753 C319.485565,235.953673 319.5,235.989131 319.5,236.026103 L319.5,267.799841 Z M149.215371,247.197871 C149.202641,243.488097 146.236567,240.491226 142.590452,240.504124 L128.950282,240.552596 C127.199346,240.558816 125.522553,241.272483 124.28878,242.536599 C123.055006,243.800714 122.365318,245.511728 122.371398,247.293234 L122.400567,255.781324 C122.413296,259.491099 125.37937,262.487969 129.025486,262.475071 L142.665656,262.426599 C144.416591,262.42038 146.093385,261.706712 147.327158,260.442597 C148.560931,259.178481 149.250619,257.467467 149.244539,255.685961 L149.215371,247.197871 Z M304.187882,247.14433 C304.18487,245.386096 303.49551,243.701093 302.271453,242.460003 C301.047397,241.218913 299.388913,240.523401 297.66085,240.526461 L283.908939,240.550892 C282.180877,240.553957 280.524788,241.255353 279.304995,242.500781 C278.085202,243.746208 277.401624,245.433649 277.404631,247.191882 L277.419459,255.834865 C277.422471,257.593099 278.111831,259.278102 279.335888,260.519192 C280.559944,261.760282 282.218428,262.455795 283.946491,262.452735 L297.698401,262.428303 C299.426464,262.425238 301.082553,261.723842 302.302346,260.478415 C303.522139,259.232987 304.205717,257.545547 304.20271,255.787313 L304.187882,247.14433 Z M259.560308,252.187391 C259.555394,249.80063 258.619605,247.513277 256.957977,245.828526 C255.29635,244.143775 253.044997,243.199631 250.699192,243.203784 L176.215699,243.336077 C173.869895,243.340236 171.621792,244.292364 169.965951,245.983002 C168.310109,247.67364 167.382167,249.9643 167.386249,252.351061 L167.386249,252.826067 C167.391162,255.212828 168.326952,257.500181 169.988579,259.184932 C171.650207,260.869683 173.90156,261.813827 176.247364,261.809674 L250.730857,261.677381 C253.076662,261.673222 255.324764,260.721094 256.980606,259.030456 C258.636447,257.339818 259.564389,255.049157 259.560308,252.662397 L259.560308,252.187391 Z" id="path-27"></path>
        <path d="M148.49996,255.274883 C148.506069,257.021058 147.813127,258.698139 146.573533,259.937185 C145.333939,261.176231 143.649236,261.875745 141.890039,261.881841 L128.185519,261.929352 C124.522202,261.941994 121.542135,259.004557 121.529346,255.368354 L121.50004,247.048598 C121.493931,245.302423 122.186873,243.625342 123.426467,242.386296 C124.666061,241.14725 126.350764,240.447736 128.109961,240.44164 L141.814481,240.394129 C145.477798,240.381487 148.457865,243.318924 148.470654,246.955127 L148.49996,255.274883 Z M144.037658,247.173294 C144.03659,246.566627 143.792772,245.985228 143.359839,245.556999 C142.926906,245.128771 142.340324,244.88879 141.729133,244.889848 L128.126479,244.913434 C127.515288,244.914494 126.929554,245.156508 126.498132,245.586236 C126.06671,246.015965 125.824941,246.598206 125.826006,247.204873 L125.83998,255.150187 C125.841047,255.756854 126.084866,256.338253 126.517798,256.766482 C126.950731,257.194711 127.537314,257.434691 128.148505,257.433633 L141.751158,257.410047 C142.362349,257.408987 142.948083,257.166973 143.379505,256.737245 C143.810927,256.307517 144.052697,255.725275 144.051631,255.118608 L144.037658,247.173294 Z" id="path-28"></path>
        <path d="M303.49999,255.382819 C303.50302,257.1097 302.814292,258.767049 301.585309,259.990269 C300.356325,261.213488 298.687759,261.902377 296.946677,261.905387 L283.091157,261.929383 C281.350075,261.932388 279.679096,261.249278 278.445817,260.030319 C277.212538,258.81136 276.517984,257.156404 276.514949,255.429523 L276.50001,246.940662 C276.49698,245.213781 277.185708,243.556432 278.414691,242.333212 C279.643675,241.109993 281.312241,240.421104 283.053323,240.418094 L296.908843,240.394099 C298.649925,240.391093 300.320904,241.074203 301.554183,242.293162 C302.787462,243.512121 303.482016,245.167077 303.485051,246.893958 L303.49999,255.382819 Z M299.289845,247.160694 C299.289845,245.9032 298.262061,244.8838 296.994226,244.8838 L283.24096,244.8838 C281.973125,244.8838 280.945341,245.9032 280.945341,247.160694 L280.945341,255.152645 C280.945341,256.410139 281.973125,257.429539 283.24096,257.429539 L296.994226,257.429539 C298.262061,257.429539 299.289845,256.410139 299.289845,255.152645 L299.289845,247.160694 Z" id="path-29"></path>
        <path d="M175.813423,243.100292 L250.470469,243.100078 C255.283631,243.100039 259.18548,247.001866 259.185494,251.815028 C259.185494,251.815036 259.185494,251.815045 259.185469,251.815053 L259.185469,252.554425 C259.185444,257.367577 255.283621,261.269411 250.470469,261.26945 L175.813423,261.269664 C171.000262,261.269703 167.098412,257.367876 167.098398,252.554714 C167.098398,252.554706 167.098398,252.554697 167.098423,252.554689 L167.098423,251.815317 C167.098448,247.002165 171.000272,243.100331 175.813423,243.100292 Z" id="path-30"></path>
        <path d="M128.693172,244.902879 L142.282376,244.902879 C143.53054,244.902879 144.542376,245.914715 144.542376,247.162879 L144.542376,255.206102 C144.542376,256.454266 143.53054,257.466102 142.282376,257.466102 L128.693172,257.466102 C127.445008,257.466102 126.433172,256.454266 126.433172,255.206102 L126.433172,247.162879 C126.433172,245.914715 127.445008,244.902879 128.693172,244.902879 Z" id="path-31"></path>
        <rect id="path-32" x="281.5" y="244.901478" width="17.5" height="12.5205255" rx="2.245"></rect>
        <path d="M287.532038,294.386666 L287.501641,295.413253 C287.494886,295.597119 287.582699,295.690754 287.76508,295.694159 C291.002351,295.750341 321.085156,296.301939 321.399258,295.372393 C337.502864,295.695862 353.543987,296.438137 369.522627,297.599218 C372.683906,297.830753 375.934686,298.25637 379.274968,298.876067 C380.166611,299.042909 380.235848,299.381699 379.48268,299.892439 C379.361093,299.977562 378.99633,300.067793 378.388392,300.163131 C369.056541,301.639169 359.572707,302.119264 350.144599,302.553392 C317.396998,304.071992 284.63251,304.887473 251.851135,304.999835 C250.69943,305.00324 248.112316,304.953869 244.089792,304.851721 C238.623415,304.708714 233.177302,304.877258 227.173913,304.652532 C223.664759,304.51974 220.618314,304.465261 218.034576,304.489096 C206.118989,304.596351 194.183137,304.877258 182.26755,304.887473 C147.155745,304.924927 112.062516,304.124768 76.987863,302.486996 C70.3208081,302.177148 63.6621968,301.741316 57.0120291,301.179503 C54.5346812,300.9701 49.7573007,300.781126 47.6599142,299.529814 C47.4370035,299.397022 47.4471358,299.286361 47.6903111,299.197833 C50.8414571,298.063991 55.8822774,297.895447 58.2735008,297.706473 C74.0461179,296.480698 89.9437002,295.661812 105.966247,295.249816 C105.739959,295.55626 105.917275,295.711184 106.498193,295.714589 C117.231679,295.782688 127.97023,295.789497 138.713848,295.735019 C138.789575,295.733745 138.861524,295.701449 138.913133,295.645566 C138.964741,295.589683 138.991562,295.515029 138.98742,295.43879 L138.911428,294.29984 C149.523326,294.139808 160.121714,294.034256 170.706593,293.983182 C177.885329,293.94743 186.528183,294.69311 192.369455,294.825902 C206.031176,295.135751 222.310408,295.137453 241.207152,294.831009 C243.412616,294.79696 245.531956,294.69992 247.565171,294.539888 C250.427547,294.315162 253.193665,294.003611 256.045908,294.003611 C266.495689,294.017231 276.991066,294.144916 287.532038,294.386666 Z M125.668509,299.677928 C125.644867,299.943513 125.764766,300.091627 126.028206,300.122272 C127.659507,300.302733 129.365111,300.483195 131.145019,300.663656 C132.781385,300.8322 135.045955,301.281651 137.036952,301.363369 C139.836845,301.479137 141.263811,301.540426 141.31785,301.547235 C148.263543,302.063082 155.097781,301.715779 162.08907,302.012008 C167.337602,302.236734 172.677325,301.853679 177.753609,302.211197 C182.164538,302.521046 186.09756,302.725341 189.552675,302.824084 C208.679084,303.362064 228.357704,303.305882 248.588534,302.65554 C253.34565,302.502318 258.882953,303.110099 263.928839,302.762796 C274.378621,302.04776 283.781397,301.565963 292.137169,301.317403 C293.753271,301.271436 295.572019,300.888381 297.33504,300.847522 C299.214582,300.806663 301.058661,300.275494 303.014195,300.34189 C304.067955,300.372534 304.721488,299.902654 304.230072,298.773919 C304.169278,298.630912 304.0612,298.557706 303.905838,298.554301 C301.251175,298.544086 298.576247,297.777977 296.174891,297.73201 C290.068491,297.606028 283.960401,297.568574 277.850623,297.619648 C271.928292,297.670722 266.071821,297.308097 260.184954,297.108908 C253.730677,296.88929 246.470883,295.663515 240.27498,295.648193 C221.327575,295.602226 202.309243,295.244708 183.382103,296.112966 C181.077004,296.220221 178.093041,296.965901 175.438378,296.53688 C174.04012,296.312154 173.077551,297.292774 171.542508,296.450054 C171.399804,296.369719 171.23892,296.329171 171.076422,296.332584 C162.990844,296.358121 154.829275,296.434732 146.774095,297.180412 C143.876256,297.445996 140.598457,297.578789 137.482774,297.701366 C133.956732,297.839266 130.319236,298.528764 126.732401,298.819886 C126.316977,298.855638 125.698906,299.305088 125.668509,299.677928 Z" id="path-33"></path>
        <path d="M125.002925,299.549731 C125.033368,299.18374 125.652368,298.742545 126.068418,298.70745 C129.660653,298.421676 133.303626,297.744843 136.834975,297.609476 C139.955348,297.489151 143.238083,297.358798 146.140284,297.098092 C154.207591,296.366109 162.381447,296.290906 170.479196,296.265838 C170.64194,296.262487 170.803066,296.302291 170.945984,296.38115 C172.483339,297.20839 173.447356,296.245783 174.847719,296.466381 C177.506379,296.887521 180.494834,296.155539 182.803403,296.050254 C201.759037,295.197946 220.805999,295.548896 239.781929,295.594018 C245.987159,295.609059 253.257883,296.812318 259.721876,297.027902 C265.617606,297.223431 271.482893,297.579395 277.41414,297.529259 C283.533116,297.479123 289.650401,297.51589 295.765994,297.639558 C298.170965,297.68468 300.84992,298.436717 303.508579,298.446744 C303.664175,298.450086 303.772416,298.521948 303.833301,298.662328 C304.325458,299.770328 303.67094,300.231577 302.615595,300.201496 C300.657116,300.136319 298.810261,300.657731 296.92789,300.69784 C295.162215,300.737949 293.340729,301.113967 291.722193,301.159089 C283.353842,301.403083 273.936911,301.876031 263.471398,302.577931 C258.417915,302.918855 252.872276,302.322239 248.107998,302.472646 C227.846712,303.111042 208.138467,303.166191 188.983264,302.638094 C185.522948,302.541165 181.584005,302.340622 177.166436,302.036465 C172.08251,301.685515 166.734748,302.061533 161.478314,301.840936 C154.476501,301.550148 147.631974,301.891071 140.675825,301.3847 C140.621705,301.378015 139.19259,301.317852 136.388483,301.204211 C134.394488,301.123994 132.126509,300.682799 130.487679,300.517351 C128.705092,300.340205 126.99692,300.163058 125.363163,299.985912 C125.099327,299.955831 124.979247,299.810437 125.002925,299.549731 Z" id="path-34"></path>
    </defs>
    <g id="Page-1" stroke="none" stroke-width="1" fill="none" fill-rule="evenodd">
        <g id="Large-Copy" transform="translate(-830.000000, -220.000000)" fill-rule="nonzero">
            <g id="Pasted-20230822-225013" transform="translate(830.000000, 220.000000)">
                <g id="Shape" fill="#000000">
                    <use xlink:href="#path-1"></use>
                    <use style="mix-blend-mode: saturation;" xlink:href="#path-1"></use>
                </g>
                <g id="Path">
                    <use fill="#FEFDFD" xlink:href="#path-2"></use>
                    <use fill="#000000" style="mix-blend-mode: saturation;" xlink:href="#path-2"></use>
                </g>
                <g id="Path">
                    <use fill="#FEFDFD" xlink:href="#path-3"></use>
                    <use fill="#000000" style="mix-blend-mode: saturation;" xlink:href="#path-3"></use>
                </g>
                <g id="Path">
                    <use fill="#FEFDFD" xlink:href="#path-4"></use>
                    <use fill="#000000" style="mix-blend-mode: saturation;" xlink:href="#path-4"></use>
                </g>
                <g id="Path">
                    <use fill="#D93028" xlink:href="#path-5"></use>
                    <use fill="#000000" style="mix-blend-mode: saturation;" xlink:href="#path-5"></use>
                </g>
                <g id="Shape">
                    <use fill="#D93028" xlink:href="#path-6"></use>
                    <use fill="#000000" style="mix-blend-mode: saturation;" xlink:href="#path-6"></use>
                </g>
                <g id="Shape" fill="#000000">
                    <use xlink:href="#path-7"></use>
                    <use style="mix-blend-mode: saturation;" xlink:href="#path-7"></use>
                </g>
                <g id="Shape">
                    <use fill="#FEFDFD" xlink:href="#path-8"></use>
                    <use fill="#000000" style="mix-blend-mode: saturation;" xlink:href="#path-8"></use>
                </g>
                <g id="Path" fill="#000000">
                    <use xlink:href="#path-9"></use>
                    <use style="mix-blend-mode: saturation;" xlink:href="#path-9"></use>
                </g>
                <g id="Shape">
                    <use fill="#FEFDFD" xlink:href="#path-10"></use>
                    <use fill="#000000" style="mix-blend-mode: saturation;" xlink:href="#path-10"></use>
                </g>
                <g id="Shape">
                    <use fill="#FEFDFD" xlink:href="#path-11"></use>
                    <use fill="#000000" style="mix-blend-mode: saturation;" xlink:href="#path-11"></use>
                </g>
                <g id="Rectangle" transform="translate(110.848760, 125.679728) rotate(-0.100000) translate(-110.848760, -125.679728) " fill="#000000">
                    <use xlink:href="#path-12"></use>
                    <use style="mix-blend-mode: saturation;" xlink:href="#path-12"></use>
                </g>
                <g id="Rectangle" fill="#000000">
                    <use xlink:href="#path-13"></use>
                    <use style="mix-blend-mode: saturation;" xlink:href="#path-13"></use>
                </g>
                <g id="Path">
                    <use fill="#FEFDFD" xlink:href="#path-14"></use>
                    <use fill="#000000" style="mix-blend-mode: saturation;" xlink:href="#path-14"></use>
                </g>
                <g id="Path">
                    <use fill="#D93028" xlink:href="#path-15"></use>
                    <use fill="#000000" style="mix-blend-mode: saturation;" xlink:href="#path-15"></use>
                </g>
                <g id="Shape">
                    <use fill="#FFC909" xlink:href="#path-16"></use>
                    <use fill="#000000" style="mix-blend-mode: saturation;" xlink:href="#path-16"></use>
                </g>
                <g id="Path" fill="#000000">
                    <use xlink:href="#path-17"></use>
                    <use style="mix-blend-mode: saturation;" xlink:href="#path-17"></use>
                </g>
                <g id="Rectangle" transform="translate(240.543497, 197.295899) rotate(-0.100000) translate(-240.543497, -197.295899) " fill="#000000">
                    <use xlink:href="#path-18"></use>
                    <use style="mix-blend-mode: saturation;" xlink:href="#path-18"></use>
                </g>
                <g id="Path">
                    <use fill="#FEFDFD" xlink:href="#path-19"></use>
                    <use fill="#000000" style="mix-blend-mode: saturation;" xlink:href="#path-19"></use>
                </g>
                <g id="Path">
                    <use fill="#FEFDFD" xlink:href="#path-20"></use>
                    <use fill="#000000" style="mix-blend-mode: saturation;" xlink:href="#path-20"></use>
                </g>
                <g id="Shape">
                    <use fill="#D93028" xlink:href="#path-21"></use>
                    <use fill="#000000" style="mix-blend-mode: saturation;" xlink:href="#path-21"></use>
                </g>
                <g id="Shape">
                    <use fill="#D93028" xlink:href="#path-22"></use>
                    <use fill="#000000" style="mix-blend-mode: saturation;" xlink:href="#path-22"></use>
                </g>
                <g id="Shape" fill="#000000">
                    <use xlink:href="#path-23"></use>
                    <use style="mix-blend-mode: saturation;" xlink:href="#path-23"></use>
                </g>
                <g id="Shape" fill="#000000">
                    <use xlink:href="#path-24"></use>
                    <use style="mix-blend-mode: saturation;" xlink:href="#path-24"></use>
                </g>
                <g id="Rectangle">
                    <use fill="#FEFDFD" xlink:href="#path-25"></use>
                    <use fill="#000000" style="mix-blend-mode: saturation;" xlink:href="#path-25"></use>
                </g>
                <g id="Rectangle" transform="translate(293.253507, 213.616850) rotate(-0.200000) translate(-293.253507, -213.616850) ">
                    <use fill="#FEFDFD" xlink:href="#path-26"></use>
                    <use fill="#000000" style="mix-blend-mode: saturation;" xlink:href="#path-26"></use>
                </g>
                <g id="Shape">
                    <use fill="#D93028" xlink:href="#path-27"></use>
                    <use fill="#000000" style="mix-blend-mode: saturation;" xlink:href="#path-27"></use>
                </g>
                <g id="Shape" fill="#000000">
                    <use xlink:href="#path-28"></use>
                    <use style="mix-blend-mode: saturation;" xlink:href="#path-28"></use>
                </g>
                <g id="Shape" fill="#000000">
                    <use xlink:href="#path-29"></use>
                    <use style="mix-blend-mode: saturation;" xlink:href="#path-29"></use>
                </g>
                <g id="Rectangle" transform="translate(213.141946, 252.184871) rotate(-0.100000) translate(-213.141946, -252.184871) " fill="#000000">
                    <use xlink:href="#path-30"></use>
                    <use style="mix-blend-mode: saturation;" xlink:href="#path-30"></use>
                </g>
                <g id="Rectangle" transform="translate(135.487774, 251.184490) rotate(-0.100000) translate(-135.487774, -251.184490) ">
                    <use fill="#FEFDFD" xlink:href="#path-31"></use>
                    <use fill="#000000" style="mix-blend-mode: saturation;" xlink:href="#path-31"></use>
                </g>
                <g id="Rectangle">
                    <use fill="#FEFDFD" xlink:href="#path-32"></use>
                    <use fill="#000000" style="mix-blend-mode: saturation;" xlink:href="#path-32"></use>
                </g>
                <g id="Shape">
                    <use fill="#8D8D8D" xlink:href="#path-33"></use>
                    <use fill="#000000" style="mix-blend-mode: saturation;" xlink:href="#path-33"></use>
                </g>
                <g id="Path" fill="#000000">
                    <use xlink:href="#path-34"></use>
                    <use style="mix-blend-mode: saturation;" xlink:href="#path-34"></use>
                </g>
            </g>
        </g>
    </g>
</svg>