<?xml version="1.0" encoding="UTF-8"?>
<svg width="695px" height="547px" viewBox="0 0 695 547" version="1.1" xmlns="http://www.w3.org/2000/svg" xmlns:xlink="http://www.w3.org/1999/xlink">
    <title>likebeats_simple_flat_geometric_vector_graphic_logo_of_a_abstra_8da6629a-2aea-47ae-95f3-046918a0c292</title>
    <g id="Page-1" stroke="none" stroke-width="1" fill="none" fill-rule="evenodd">
        <g id="Large" transform="translate(-1259.000000, -265.000000)" fill="#000000" fill-rule="nonzero">
            <g id="likebeats_simple_flat_geometric_vector_graphic_logo_of_a_abstra_8da6629a-2aea-47ae-95f3-046918a0c292" transform="translate(1259.000000, 265.000000)">
                <path d="M517.729462,262.571875 C517.636542,262.602393 517.579322,262.695635 517.594194,262.792301 C517.609065,262.888967 517.691666,262.960698 517.789462,262.961875 C543.016129,261.775208 568.199462,260.238542 593.339462,258.351875 C616.439462,256.611875 633.549462,253.701875 651.049462,236.941875 C651.103824,236.887982 651.187012,236.882114 651.249481,236.927764 C651.31195,236.973414 651.336896,237.058305 651.309462,237.131875 C642.889462,256.611875 628.879462,271.881875 608.309462,278.611875 C603.136129,280.305208 597.892795,281.755208 592.579462,282.961875 C573.512795,287.281875 554.446129,291.598542 535.379462,295.911875 C529.269462,297.301875 518.769462,299.341875 510.519462,301.321875 C509.892795,301.468542 509.899462,301.571875 510.539462,301.631875 C529.512795,303.378542 548.502795,304.801875 567.509462,305.901875 C578.382795,306.528542 585.042795,306.765208 587.489462,306.611875 C597.989462,305.965208 607.749462,302.621875 616.769462,296.581875 C617.256129,296.255208 617.329462,296.331875 616.989462,296.811875 C607.162795,310.578542 594.586129,320.395208 579.259462,326.261875 C575.286129,327.781875 568.856129,329.475208 559.969462,331.341875 C541.336129,335.248542 521.706129,339.491875 501.079462,344.071875 C500.212795,344.265208 500.212795,344.441875 501.079462,344.601875 C515.739462,347.375208 530.646129,350.141875 545.799462,352.901875 C554.406129,354.475208 562.052795,355.251875 568.739462,355.231875 C568.939462,355.231875 568.956129,355.288542 568.789462,355.401875 C549.359462,369.141875 530.709462,378.011875 509.779462,386.401875 C508.679462,386.841875 507.899462,387.611875 507.439462,388.711875 L503.999462,396.841875 C503.734616,397.47737 503.186434,397.885507 502.629462,397.862849 C500.649462,397.791875 498.509462,388.361875 494.329462,387.301875 C482.542795,384.328542 470.789462,381.668542 459.069462,379.321875 C458.818503,379.26966 458.638834,379.048208 458.639462,378.791875 L458.269462,301.511875 C458.262795,300.665208 457.952795,299.955208 457.339462,299.381875 L450.689462,293.141875 C450.489462,292.955208 450.256129,292.861875 449.989462,292.861875 L245.549462,292.861875 C244.711412,292.86188 243.898238,293.167264 243.259462,293.721875 L237.439462,298.811875 C236.906129,299.278542 236.639462,299.868542 236.639462,300.581875 L236.359462,378.531875 C236.359462,378.891875 236.186129,379.108542 235.839462,379.181875 C224.406129,381.721875 213.006129,384.415208 201.639462,387.261875 C196.189462,388.631875 195.319462,391.991875 193.549462,396.761875 C193.352766,397.279457 192.866529,397.631308 192.314808,397.655296 C191.763086,397.679284 191.252947,397.370753 191.019462,396.871875 L186.409462,387.111875 C186.242795,386.758542 185.976129,386.515208 185.609462,386.381875 C164.669462,378.661875 143.979462,368.381875 125.949462,355.191875 C125.702795,355.011875 125.732795,354.931875 126.039462,354.951875 C133.559462,355.378542 142.316129,354.605208 152.309462,352.631875 C166.116129,349.905208 179.892795,347.215208 193.639462,344.561875 C193.754417,344.536593 193.838857,344.434537 193.841286,344.317948 C193.843715,344.201358 193.763458,344.102589 193.649462,344.081875 C171.962795,339.328542 150.262795,334.688542 128.549462,330.161875 C107.436129,325.768542 90.6227953,314.565208 78.109462,296.551875 C77.769462,296.065208 77.8427953,295.995208 78.329462,296.341875 C89.289462,304.035208 101.506129,307.511875 114.979462,306.771875 C138.226129,305.491875 161.429462,303.791875 184.589462,301.671875 C185.142795,301.618542 185.149462,301.531875 184.609462,301.411875 C157.476129,295.225208 130.362795,288.995208 103.269462,282.721875 C94.4161286,280.668542 88.0127953,278.835208 84.059462,277.221875 C65.4461286,269.635208 52.1361286,256.268542 44.129462,237.121875 C43.8827953,236.541875 43.9861286,236.471875 44.439462,236.911875 C57.399462,249.491875 73.0427953,256.438542 91.369462,257.751875 C120.156129,259.805208 148.976129,261.411875 177.829462,262.571875 C178.342795,262.591875 178.359462,262.511875 177.879462,262.331875 C175.806129,261.558542 173.702795,260.888542 171.569462,260.321875 C137.556129,251.388542 103.466129,242.748542 69.299462,234.401875 C65.199462,233.401875 60.579462,231.718542 55.439462,229.351875 C32.509462,218.791875 21.269462,202.741875 13.909462,178.961875 C13.5827953,177.901875 13.7561286,177.808542 14.429462,178.681875 C29.189462,197.771875 48.449462,207.901875 72.089462,212.481875 C108.036129,219.441875 144.276129,225.085208 180.809462,229.411875 C180.950295,229.442251 181.089086,229.352708 181.119462,229.211875 C181.149838,229.071042 181.060295,228.932251 180.919462,228.901875 C142.139462,217.181875 101.039462,206.501875 64.129462,195.531875 C34.629462,186.761875 13.239462,172.671875 5.73946196,141.391875 C3.77946196,133.218542 2.62946196,124.391875 2.28946196,114.911875 C2.26946196,114.325208 2.34946196,114.308542 2.52946196,114.861875 C12.969462,146.741875 36.029462,164.101875 66.989462,173.481875 C94.449462,181.801875 122.192795,189.078542 150.219462,195.311875 C151.026129,195.491875 151.826129,195.581875 152.619462,195.581875 C152.704847,195.589057 152.78223,195.53157 152.80001,195.447749 C152.817791,195.363928 152.770409,195.279976 152.689462,195.251875 C132.656129,186.625208 112.682795,177.981875 92.769462,169.321875 C52.029462,151.621875 13.839462,128.701875 3.68946196,81.881875 C-2.08053804,55.221875 -1.66053804,26.381875 9.09946196,0.981875 C9.1451691,0.876930392 9.25862756,0.818870291 9.37048124,0.843186307 C9.48233491,0.867502323 9.56144908,0.967426039 9.55946196,1.081875 C8.52946196,40.281875 34.469462,72.411875 67.299462,91.341875 C82.3861286,100.041875 95.129462,106.738542 105.529462,111.431875 C142.829462,128.271875 181.459462,141.831875 219.339462,157.301875 C219.632795,157.421875 219.839462,157.335208 219.959462,157.041875 C226.019462,142.528542 236.169462,133.665208 250.409462,130.451875 C254.289462,129.578542 260.926129,129.158542 270.319462,129.191875 C326.646129,129.418542 382.976129,129.461875 439.309462,129.321875 C442.876129,129.308542 447.406129,130.668542 452.899462,133.401875 C463.119462,138.488542 470.329462,146.328542 474.529462,156.921875 C474.656129,157.248542 474.879462,157.338542 475.199462,157.191875 C481.066129,154.545208 486.932795,152.101875 492.799462,149.861875 C535.149462,133.701875 579.279462,117.971875 618.049462,97.151875 C628.059462,91.781875 640.849462,83.611875 649.379462,76.151875 C670.349462,57.831875 686.729462,29.771875 684.619462,1.171875 C684.506129,-0.328125 684.749462,-0.388125 685.349462,0.991875 C696.909462,27.541875 696.859462,58.161875 689.889462,85.761875 C678.379462,131.361875 639.689462,153.561875 599.699462,170.691875 C580.672795,178.838542 561.696129,187.105208 542.769462,195.491875 C541.976129,195.845208 542.002795,195.928542 542.849462,195.741875 C573.536129,189.088542 602.836129,181.535208 630.749462,173.081875 C660.659462,164.021875 682.729462,145.771875 692.239462,115.271875 C692.366129,114.871875 692.426129,114.878542 692.419462,115.291875 C692.246129,125.785208 690.696129,135.978542 687.769462,145.871875 C679.089462,175.201875 658.659462,187.791875 630.469462,195.941875 C593.369462,206.661875 556.059462,216.541875 519.069462,227.631875 C517.282795,228.165208 515.532795,228.795208 513.819462,229.521875 C513.646129,229.595208 513.652795,229.621875 513.839462,229.601875 C556.426129,224.528542 594.586129,218.558542 628.319462,211.691875 C648.439462,207.601875 668.659462,195.631875 680.679462,178.861875 C681.766129,177.335208 682.056129,177.475208 681.549462,179.281875 C673.462795,207.881875 655.486129,226.088542 627.619462,233.901875 C619.052795,236.301875 610.452795,238.551875 601.819462,240.651875 C573.626129,247.505208 545.596129,254.811875 517.729462,262.571875 Z M91.249462,143.171875 C122.899462,157.041875 154.669462,168.231875 186.729462,179.801875 C193.022795,182.075208 197.522795,184.198542 200.229462,186.171875 C217.839462,198.971875 214.829462,220.731875 214.509462,239.541875 C214.506788,239.758428 214.590946,239.967033 214.743141,240.121107 C214.895336,240.275181 215.102893,240.361875 215.319462,240.361875 L232.839462,240.361875 C233.292795,240.361875 233.522795,240.138542 233.529462,239.691875 C233.669462,231.721875 236.129462,220.161875 225.209462,217.851875 C224.876129,217.785208 224.712795,217.581875 224.719462,217.241875 C224.849462,211.291875 225.279462,204.581875 224.039462,199.131875 C220.009462,181.381875 206.649462,172.201875 190.329462,166.561875 C151.509462,153.161875 105.899462,136.201875 67.419462,115.971875 C48.289462,105.921875 31.349462,92.351875 18.729462,74.671875 C18.6727349,74.5962998 18.5694927,74.5744152 18.4868107,74.6195144 C18.4041288,74.6646137 18.366964,74.7634774 18.399462,74.851875 C33.289462,108.521875 57.979462,128.601875 91.249462,143.171875 Z M469.079462,217.981875 C465.932795,218.795208 463.412795,220.541875 461.519462,223.221875 C461.306129,223.521875 461.196129,223.858542 461.189462,224.231875 L460.999376,239.631875 C460.996787,239.788359 461.056397,239.939495 461.165173,240.052021 C461.273949,240.164548 461.422977,240.229245 461.579462,240.231875 L479.239462,240.421875 C479.579462,240.421875 479.742795,240.251875 479.729462,239.911875 C479.099462,217.111875 477.249462,194.531875 498.229462,183.451875 C499.389462,182.838542 505.636129,180.518542 516.969462,176.491875 C553.689462,163.471875 580.149462,154.151875 609.269462,140.841875 C639.959462,126.821875 662.949462,106.351875 676.379462,75.091875 C676.427197,74.9509324 676.36805,74.7959546 676.23855,74.7226527 C676.10905,74.6493508 675.945734,74.6784063 675.849462,74.791875 C663.359462,92.681875 645.859462,106.581875 627.279462,116.361875 C587.319462,137.411875 543.079462,152.741875 499.879462,167.941875 C485.369462,173.041875 471.579462,185.601875 469.569462,200.861875 C469.089462,204.468542 469.076129,209.971875 469.529462,217.371875 C469.549462,217.698542 469.399462,217.901875 469.079462,217.981875 Z M457.329462,158.511875 C453.829462,152.251875 447.489462,147.791875 440.659462,145.991875 C438.452795,145.405208 434.532795,145.111875 428.899462,145.111875 C375.686129,145.125208 322.469462,145.125208 269.249462,145.111875 C260.929462,145.111875 255.189462,145.635208 252.029462,146.681875 C244.509462,149.171875 236.279462,156.231875 235.409462,164.901875 C234.056129,178.421875 232.416129,191.941875 230.489462,205.461875 C230.456129,205.728542 230.576129,205.861875 230.849462,205.861875 L463.549462,205.861875 C463.876129,205.861875 464.019462,205.701875 463.979462,205.381875 C462.459462,192.575208 460.996129,179.801875 459.589462,167.061875 C459.176129,163.321875 458.422795,160.471875 457.329462,158.511875 Z M198.039462,247.111875 C202.809462,244.071875 204.259462,252.971875 205.099462,255.721875 C205.210727,256.074041 205.534419,256.315845 205.903681,256.322641 C206.272943,256.329437 206.605314,256.099708 206.729462,255.751875 C207.299462,254.101875 205.369462,250.291875 204.919462,248.571875 C204.813567,248.165049 204.903232,247.732111 205.162,247.40081 C205.420768,247.069509 205.819101,246.877661 206.239462,246.881875 L232.769462,247.191875 C233.28482,247.197586 233.708582,246.791666 233.719462,246.281875 C233.759462,244.995208 233.122795,244.361875 231.809462,244.381875 C220.762795,244.555208 210.089462,244.615208 199.789462,244.561875 C198.466298,244.55369 197.195398,245.078816 196.262583,246.019154 C195.329768,246.959492 194.813347,248.2361 194.829096,249.561875 L195.179462,278.381875 C195.175588,279.007293 195.638076,279.537701 196.258196,279.619028 C196.878316,279.700355 197.461935,279.307142 197.619462,278.701875 C197.719462,278.361875 197.762795,277.915208 197.749462,277.361875 C197.569462,267.655208 197.392795,258.081875 197.219462,248.641875 C197.207156,248.027117 197.517536,247.447993 198.039462,247.111875 L198.039462,247.111875 Z M490.299462,247.541875 L487.729462,254.831875 C487.609462,255.171875 487.676129,255.465208 487.929462,255.711875 L488.429462,256.221875 C488.548063,256.336122 488.713874,256.387442 488.874627,256.359657 C489.03538,256.331873 489.17127,256.228407 489.239462,256.081875 C490.446129,253.528542 491.399462,250.871875 492.099462,248.111875 C492.999462,244.521875 497.549462,247.101875 497.549462,250.641875 C497.556129,260.115208 497.559462,269.585208 497.559462,279.051875 C497.559462,279.398542 497.732795,279.608542 498.079462,279.681875 L499.209462,279.901875 C499.344384,279.928793 499.484271,279.893907 499.590753,279.806786 C499.697234,279.719665 499.75913,279.589455 499.759462,279.451875 L499.829504,249.311875 C499.834806,248.031901 499.328703,246.802807 498.423616,245.897721 C497.51853,244.992634 496.289436,244.486531 495.009462,244.491833 L461.649462,244.661875 C461.242795,244.668542 461.042795,244.871875 461.049301,245.271875 L461.079462,246.641875 C461.086129,247.008542 461.276129,247.191875 461.649462,247.191875 L489.779462,246.821875 C489.956679,246.81829 490.124371,246.901904 490.228151,247.0456 C490.331931,247.189295 490.358583,247.374772 490.299462,247.541875 L490.299462,247.541875 Z M233.319462,251.851875 C233.319462,251.708281 233.203056,251.591875 233.059462,251.591875 L214.819462,251.591875 C214.675868,251.591875 214.559462,251.708281 214.559462,251.851875 L214.559462,294.251875 C214.559462,294.395469 214.675868,294.511875 214.819462,294.511875 L233.059462,294.511875 C233.203056,294.511875 233.319462,294.395469 233.319462,294.251875 L233.319462,251.851875 Z M479.532665,252.143675 C479.533603,251.873094 479.315043,251.652967 479.044462,251.651975 L461.864562,251.591972 C461.734606,251.591523 461.609793,251.642716 461.517581,251.73429 C461.425369,251.825864 461.373312,251.950319 461.372862,252.080275 L461.226259,294.080075 C461.225321,294.350656 461.443881,294.570783 461.714462,294.571775 L478.894362,294.631778 C479.024318,294.632227 479.149131,294.581034 479.241343,294.48946 C479.333555,294.397886 479.385612,294.273431 479.386062,294.143475 L479.532665,252.143675 Z M487.519462,298.791875 C487.557252,298.928403 487.528547,299.074755 487.441985,299.186893 C487.355423,299.29903 487.221109,299.363861 487.079462,299.361875 L461.559462,299.361875 C461.226129,299.361875 461.059462,299.528542 461.059462,299.861875 L461.059462,301.341875 C461.059462,301.755208 461.269462,301.958542 461.689462,301.951875 C472.002795,301.705208 482.306129,301.778542 492.599462,302.171875 C496.239462,302.311875 499.029462,301.521875 499.489462,297.591875 C499.829462,294.645208 499.822795,290.978542 499.469462,286.591875 C499.442795,286.285208 499.296129,286.051875 499.029462,285.891875 C498.496129,285.571875 498.026129,285.618542 497.619462,286.031875 C497.412795,286.238542 497.309462,286.485208 497.309462,286.771875 L497.299462,297.411875 C497.300647,298.625725 496.346979,299.623545 495.139462,299.671875 L491.069462,299.841875 C490.689462,299.861875 490.399462,299.711875 490.199462,299.391875 C488.389462,296.551875 489.069462,293.801875 487.629462,291.151875 C487.556028,291.003562 487.393036,290.922052 487.230321,290.952271 C487.067607,290.982489 486.944748,291.117086 486.929462,291.281875 C486.622795,293.828542 486.819462,296.331875 487.519462,298.791875 Z M207.959462,299.081875 L208.879462,292.601875 C208.916342,292.371687 208.806759,292.14273 208.604352,292.027068 C208.401944,291.911407 208.149054,291.933237 207.969462,292.081875 C206.629462,293.161875 206.729462,296.791875 205.809462,298.651875 C205.642795,298.978542 205.389462,299.205208 205.049462,299.331875 C202.729462,300.225208 200.556129,300.058542 198.529462,298.831875 C198.196129,298.638542 198.006129,298.348542 197.959462,297.961875 C197.512795,294.221875 197.402795,290.475208 197.629462,286.721875 C197.641887,286.533954 197.566813,286.350831 197.426053,286.22571 C197.285293,286.10059 197.09463,286.047503 196.909462,286.081875 L195.989462,286.261875 C195.582795,286.335208 195.376129,286.578542 195.369462,286.991875 C195.219462,292.241875 193.749462,302.111875 200.129462,302.011875 C211.236129,301.838542 222.346129,301.798542 233.459462,301.891875 C233.852795,301.898542 234.022795,301.708542 233.969462,301.321875 L233.769462,299.811875 C233.729462,299.498542 233.549462,299.335208 233.229462,299.321875 C224.989462,298.895208 216.762795,299.021875 208.549462,299.701875 C208.383797,299.715387 208.220907,299.653254 208.106324,299.532845 C207.991741,299.412436 207.937757,299.246667 207.959462,299.081875 Z M233.460762,306.335375 C233.460656,306.266401 233.433148,306.200296 233.384292,306.151609 C233.335435,306.102922 233.269236,306.075775 233.200262,306.075775 L214.740262,306.108075 C214.596707,306.108351 214.480541,306.22492 214.480762,306.368475 L214.578162,362.188375 C214.578268,362.257349 214.605776,362.323454 214.654632,362.372141 C214.703488,362.420828 214.769688,362.447975 214.838662,362.447975 L233.298662,362.415675 C233.442217,362.415399 233.558383,362.29883 233.558162,362.155275 L233.460762,306.335375 Z M479.559462,306.371875 C479.559462,306.228281 479.443056,306.111875 479.299462,306.111875 L461.559462,306.111875 C461.415868,306.111875 461.299462,306.228281 461.299462,306.371875 L461.299462,362.111875 C461.299462,362.255469 461.415868,362.371875 461.559462,362.371875 L479.299462,362.371875 C479.443056,362.371875 479.559462,362.255469 479.559462,362.111875 L479.559462,306.371875 Z" id="Shape"></path>
                <rect id="Rectangle" x="298.619462" y="152.111875" width="97.16" height="17.98" rx="5.3"></rect>
                <path d="M436.549462,408.361875 L499.329462,408.361875 C500.539631,408.36163 501.659928,408.995832 502.279462,410.031875 C504.339462,413.481875 506.769462,417.071875 506.789462,421.221875 C506.842795,435.361875 506.842795,449.498542 506.789462,463.631875 C506.782795,463.945208 506.622795,464.101875 506.309462,464.101875 L189.049462,464.121875 C188.736129,464.121875 188.579462,463.965208 188.579462,463.651875 C188.539462,449.465208 188.532795,435.178542 188.559462,420.791875 C188.569462,416.721875 191.319462,412.661875 193.399462,409.461875 C193.841452,408.775463 194.598786,408.361001 195.409462,408.361875 L258.729462,408.361875 C258.827817,408.362582 258.919331,408.31163 258.970537,408.227652 C259.021743,408.143675 259.025131,408.038988 258.979462,407.951875 L250.589462,392.121875 C250.274105,391.524271 250.109339,390.858342 250.109462,390.181875 C250.036129,364.688542 250.029462,339.185208 250.089462,313.671875 C250.109462,306.361875 261.479462,308.561875 265.879462,308.571875 C323.606129,308.685208 381.332795,308.635208 439.059462,308.421875 C443.789462,308.401875 445.369462,311.231875 445.309462,315.721875 C444.942795,340.628542 444.932795,365.531875 445.279462,390.431875 C445.279316,390.707779 445.210678,390.982332 445.079462,391.231875 L436.179462,407.741875 C435.959462,408.155208 436.082795,408.361875 436.549462,408.361875 Z M416.429462,343.911875 C416.802795,343.605208 416.999462,343.695208 417.019462,344.181875 C418.299462,377.175208 419.909462,409.841875 421.849462,442.181875 C421.956129,443.935208 422.029462,444.878542 422.069462,445.011875 C422.982795,448.178542 423.449462,448.128542 423.469462,444.861875 L424.119462,332.391875 C424.119462,332.038542 423.942795,331.861875 423.589462,331.861875 L271.829462,331.861875 C271.509462,331.861875 271.346129,332.021875 271.339462,332.341875 C271.172795,368.461875 271.372795,404.655208 271.939462,440.921875 C271.979462,443.288542 272.096129,445.205208 272.289462,446.671875 C272.312563,446.78327 272.410697,446.863141 272.524462,446.863141 C272.638227,446.863141 272.736361,446.78327 272.759462,446.671875 C273.552795,439.651875 274.049462,434.358542 274.249462,430.791875 C275.869462,402.085208 277.242795,373.341875 278.369462,344.561875 C278.389462,344.075208 278.606129,343.965208 279.019462,344.231875 C300.939462,358.551875 323.719462,371.771875 346.389462,384.951875 C346.676129,385.118542 346.966129,385.118542 347.259462,384.951875 C369.779462,372.058542 392.136129,358.948542 414.329462,345.621875 C415.039462,345.191875 415.799462,344.411875 416.429462,343.911875 Z M339.249462,441.671875 C339.449462,441.831875 339.659462,441.905208 339.879462,441.891875 C340.262983,441.865546 340.560365,441.546297 340.559464,441.161875 L340.559464,399.201875 C340.559464,398.963445 340.444942,398.737112 340.249462,398.591875 C322.569462,385.538542 305.052795,372.158542 287.699462,358.451875 C285.659462,356.845208 283.722795,355.155208 281.889462,353.381875 C281.784391,353.281648 281.62615,353.26188 281.499652,353.33318 C281.373153,353.404479 281.308125,353.550088 281.339462,353.691875 C281.732795,355.451875 281.979462,357.258542 282.079462,359.111875 C283.532795,386.518542 285.126129,413.841875 286.859462,441.081875 C286.879462,441.448542 287.072795,441.631875 287.439462,441.631875 C304.746129,441.578542 322.016129,441.591875 339.249462,441.671875 Z M408.769462,441.511875 L413.529897,354.441875 C413.536129,354.255208 413.466129,354.218542 413.319462,354.331875 L355.179462,398.401875 C354.932795,398.588542 354.809462,398.838542 354.809462,399.151875 L354.809462,441.101875 C354.809462,441.428542 354.976129,441.595208 355.309462,441.601875 C373.149462,441.628542 390.939462,441.625208 408.679462,441.591875 C408.703331,441.591875 408.726223,441.583446 408.743102,441.568444 C408.75998,441.553441 408.769462,441.533092 408.769462,441.511875 Z M256.059462,435.861875 C256.059462,435.718281 255.943056,435.601875 255.799462,435.601875 L201.899462,435.601875 C201.755868,435.601875 201.639462,435.718281 201.639462,435.861875 L201.639462,453.621875 C201.639462,453.765469 201.755868,453.881875 201.899462,453.881875 L255.799462,453.881875 C255.943056,453.881875 256.059462,453.765469 256.059462,453.621875 L256.059462,435.861875 Z M493.579462,435.861875 C493.579462,435.712758 493.458579,435.591875 493.309462,435.591875 L439.829462,435.591875 C439.680345,435.591875 439.559462,435.712758 439.559462,435.861875 L439.559462,453.801875 C439.559462,453.950992 439.680345,454.071875 439.829462,454.071875 L493.309462,454.071875 C493.458579,454.071875 493.579462,453.950992 493.579462,453.801875 L493.579462,435.861875 Z" id="Shape"></path>
                <path d="M207.679462,539.601875 C196.929462,529.501875 197.579462,517.711875 198.309462,504.131875 C198.329462,503.798542 198.192795,503.551875 197.899462,503.391875 C192.246129,500.285208 189.166129,495.791875 188.659462,489.911875 C188.332795,486.098542 188.352795,478.575208 188.719462,467.341875 C188.726129,467.008542 188.899462,466.841875 189.239462,466.841875 C270.619462,466.848542 351.992795,466.858542 433.359462,466.871875 C433.669462,466.871875 433.729462,466.791875 433.969462,466.641875 C434.029462,466.601875 434.099462,466.585208 434.179462,466.591875 C458.159462,466.898542 482.142795,466.971875 506.129462,466.811875 C506.495622,466.811834 506.793997,467.105755 506.799462,467.471875 C506.839462,475.321875 508.129462,488.361875 505.379462,494.871875 C503.832795,498.545208 501.136129,501.361875 497.289462,503.321875 C496.989462,503.475208 496.852795,503.718542 496.879462,504.051875 C497.999462,516.491875 498.029462,531.021875 487.399462,539.431875 C487.296501,539.513092 487.253513,539.648908 487.290993,539.774576 C487.328473,539.900244 487.438834,539.990325 487.569462,540.001875 L565.049462,546.361875 C565.091485,546.359106 565.120718,546.39044 565.120718,546.431861 C565.120718,546.473283 565.081485,546.509106 565.039462,546.511875 C439.129462,546.681875 313.219462,546.601875 187.309462,546.601875 C169.219462,546.601875 150.039462,546.131875 131.319462,546.78249 C131.16478,546.788373 131.03253,546.74303 130.969462,546.661875 C130.949462,546.635208 130.929462,546.605208 130.909462,546.571875 C130.904571,546.548414 130.904571,546.5219 130.919878,546.500277 C130.935604,546.478654 130.961372,546.464433 130.989462,546.461875 C156.509462,544.361875 182.026129,542.215208 207.539462,540.021875 C207.892795,539.988542 207.939462,539.848542 207.679462,539.601875 Z M451.859462,477.621875 C451.859462,477.478281 451.743056,477.361875 451.599462,477.361875 L416.819462,477.361875 C416.675868,477.361875 416.559462,477.478281 416.559462,477.621875 L416.559462,489.101875 C416.559462,489.245469 416.675868,489.361875 416.819462,489.361875 L451.599462,489.361875 C451.743056,489.361875 451.859462,489.245469 451.859462,489.101875 L451.859462,477.621875 Z M227.349462,477.674175 C227.349462,477.599914 227.320222,477.528643 227.267806,477.476039 C227.215389,477.423435 227.144223,477.393807 227.069962,477.393675 L202.109962,477.350075 C202.035701,477.349942 201.964429,477.379315 201.911825,477.431731 C201.859222,477.484148 201.829594,477.555314 201.829462,477.629575 L201.809462,489.109575 C201.809462,489.183836 201.838702,489.255107 201.891118,489.307711 C201.943535,489.360315 202.014701,489.389943 202.088962,489.390075 L227.048962,489.433675 C227.123223,489.433808 227.194494,489.404435 227.247098,489.352019 C227.299702,489.299602 227.329329,489.228436 227.329462,489.154175 L227.349462,477.674175 Z M278.829063,477.694775 C278.829063,477.623166 278.801084,477.554396 278.750618,477.503592 C278.700152,477.452788 278.631571,477.424113 278.559962,477.423875 L243.080162,477.299973 C243.008553,477.299736 242.939783,477.327953 242.888979,477.378419 C242.838175,477.428885 242.8095,477.497466 242.809262,477.569075 L242.76986,488.848975 C242.76986,488.920584 242.79784,488.989354 242.848306,489.040158 C242.898772,489.090962 242.967353,489.119637 243.038962,489.119875 L278.518762,489.243777 C278.590371,489.244014 278.659141,489.215797 278.709945,489.165331 C278.760749,489.114865 278.789424,489.046284 278.789662,488.974675 L278.829063,477.694775 Z M493.349462,477.674375 C493.349462,477.602767 493.321276,477.534038 493.270734,477.48331 C493.220193,477.432581 493.15157,477.404007 493.079962,477.403875 L467.879962,477.359875 C467.730884,477.359654 467.609838,477.480297 467.609562,477.629375 L467.589461,489.129375 C467.589461,489.200983 467.617648,489.269712 467.668189,489.32044 C467.718731,489.371169 467.787353,489.399743 467.858962,489.399875 L493.058962,489.443875 C493.20804,489.444096 493.329086,489.323453 493.329362,489.174375 L493.349462,477.674375 Z M349.999462,530.921875 C385.779462,532.775208 421.479462,535.045208 457.099462,537.731875 C457.200397,537.740983 457.296174,537.685708 457.338786,537.593757 C457.381398,537.501806 457.361039,537.392998 457.289462,537.321875 C449.589462,529.391875 448.839462,520.571875 449.079462,509.971875 C449.086129,509.598542 448.902795,509.411875 448.529462,509.411875 L247.459462,509.461875 C247.087387,509.463145 246.733016,509.620205 246.483582,509.894392 C246.234147,510.168579 246.112818,510.534426 246.149462,510.901875 C247.139462,521.271875 244.959462,529.791875 237.859462,537.231875 C237.539462,537.565208 237.609462,537.718542 238.069462,537.691875 C270.149462,535.451875 302.226129,533.365208 334.299462,531.431875 C342.192795,530.958542 347.426129,530.788542 349.999462,530.921875 Z" id="Shape"></path>
            </g>
        </g>
    </g>
</svg>