<?xml version="1.0" encoding="UTF-8"?>
<svg width="279px" height="19px" viewBox="0 0 279 19" version="1.1" xmlns="http://www.w3.org/2000/svg" xmlns:xlink="http://www.w3.org/1999/xlink">
    <title>trucking simplified</title>
    <g id="Page-1" stroke="none" stroke-width="1" fill="none" fill-rule="evenodd">
        <g id="Large-Copy" transform="translate(-945.000000, -262.000000)" fill="#275657" fill-rule="nonzero">
            <g id="trucking-simplified" transform="translate(945.152000, 262.624000)">
                <path d="M10.32,17.376 L4.728,17.376 C4.52,17.376 4.416,17.272 4.416,17.064 L4.416,15.888 C4.416,15.68 4.52,15.576 4.728,15.576 L6.552,15.576 L6.552,1.944 L2.016,1.944 L2.016,4.488 C2.016,4.712 1.904,4.824 1.68,4.824 L0.336,4.824 C0.112,4.824 0,4.712 0,4.488 L0,0.456 C0,0.248 0.112,0.144 0.336,0.144 L14.808,0.144 C15.032,0.144 15.144,0.248 15.144,0.456 L15.144,4.488 C15.144,4.712 15.032,4.824 14.808,4.824 L13.44,4.824 C13.232,4.824 13.128,4.712 13.128,4.488 L13.128,1.944 L8.64,1.944 L8.64,15.576 L10.32,15.576 C10.544,15.576 10.656,15.68 10.656,15.888 L10.656,17.064 C10.656,17.272 10.544,17.376 10.32,17.376 Z" id="Path"></path>
                <path d="M31.848,17.376 L29.76,17.376 C29.184,17.376 28.704,16.992 28.32,16.224 L26.064,11.64 C25.872,11.24 25.668,10.944 25.452,10.752 C25.236,10.56 24.936,10.456 24.552,10.44 L21.504,10.44 L21.504,15.576 L23.664,15.576 C23.856,15.576 23.952,15.672 23.952,15.864 L23.952,17.088 C23.952,17.28 23.856,17.376 23.664,17.376 L17.592,17.376 C17.384,17.376 17.28,17.28 17.28,17.088 L17.28,15.864 C17.28,15.672 17.384,15.576 17.592,15.576 L19.416,15.576 L19.416,1.944 L17.592,1.944 C17.384,1.944 17.28,1.848 17.28,1.656 L17.28,0.432 C17.28,0.24 17.384,0.144 17.592,0.144 L24.984,0.144 C26.696,0.144 28.088,0.596 29.16,1.5 C30.232,2.404 30.768,3.68 30.768,5.328 C30.768,7.84 29.592,9.408 27.24,10.032 C27.544,10.272 27.92,10.808 28.368,11.64 L30.384,15.576 L31.848,15.576 C32.04,15.576 32.136,15.672 32.136,15.864 L32.136,17.088 C32.136,17.28 32.04,17.376 31.848,17.376 Z M21.504,8.736 L24.576,8.736 C27.296,8.736 28.656,7.624 28.656,5.4 C28.656,3.096 27.296,1.944 24.576,1.944 L21.504,1.944 L21.504,8.736 Z" id="Shape"></path>
                <path d="M45.792,11.136 L45.792,1.944 L43.944,1.944 C43.752,1.944 43.656,1.848 43.656,1.656 L43.656,0.432 C43.656,0.24 43.752,0.144 43.944,0.144 L49.728,0.144 C49.92,0.144 50.016,0.24 50.016,0.432 L50.016,1.656 C50.016,1.848 49.92,1.944 49.728,1.944 L47.88,1.944 L47.88,10.92 C47.88,13.08 47.316,14.724 46.188,15.852 C45.06,16.98 43.468,17.544 41.412,17.544 C39.356,17.544 37.76,16.98 36.624,15.852 C35.488,14.724 34.92,13.08 34.92,10.92 L34.92,1.944 L33.096,1.944 C32.888,1.944 32.784,1.848 32.784,1.656 L32.784,0.432 C32.784,0.24 32.888,0.144 33.096,0.144 L38.856,0.144 C39.064,0.144 39.168,0.24 39.168,0.432 L39.168,1.656 C39.168,1.848 39.064,1.944 38.856,1.944 L37.008,1.944 L37.008,10.992 C37.008,14.064 38.48,15.6 41.424,15.6 C42.928,15.6 44.032,15.204 44.736,14.412 C45.44,13.62 45.792,12.528 45.792,11.136 Z" id="Path"></path>
                <path d="M66.768,13.032 C66.848,13.096 66.888,13.172 66.888,13.26 C66.888,13.348 66.852,13.468 66.78,13.62 C66.708,13.772 66.588,13.972 66.42,14.22 C66.252,14.468 65.952,14.808 65.52,15.24 C65.088,15.672 64.616,16.044 64.104,16.356 C63.592,16.668 62.916,16.944 62.076,17.184 C61.236,17.424 60.336,17.544 59.376,17.544 C57.04,17.544 55.092,16.728 53.532,15.096 C51.972,13.464 51.192,11.324 51.192,8.676 C51.192,6.028 51.98,3.92 53.556,2.352 C55.132,0.784 57.032,0 59.256,0 C61.736,0 63.536,0.856 64.656,2.568 L64.632,0.432 C64.6,0.24 64.696,0.144 64.92,0.144 L66.264,0.144 C66.472,0.144 66.576,0.24 66.576,0.432 L66.576,5.664 C66.576,5.872 66.472,5.976 66.264,5.976 L64.752,5.976 C64.56,5.976 64.464,5.872 64.464,5.664 L64.464,5.448 C64.464,4.712 63.964,3.948 62.964,3.156 C61.964,2.364 60.72,1.968 59.232,1.968 C57.744,1.968 56.404,2.556 55.212,3.732 C54.02,4.908 53.424,6.572 53.424,8.724 C53.424,10.876 54.024,12.548 55.224,13.74 C56.424,14.932 57.832,15.528 59.448,15.528 C61.192,15.528 62.568,15.136 63.576,14.352 C64.36,13.744 64.936,13.128 65.304,12.504 C65.432,12.264 65.584,12.216 65.76,12.36 L66.768,13.032 Z" id="Path"></path>
                <path d="M84.432,17.376 L82.344,17.376 C81.768,17.376 81.288,16.992 80.904,16.224 L78.648,11.64 C78.52,11.384 78.404,11.184 78.3,11.04 C78.196,10.896 77.972,10.752 77.628,10.608 C77.284,10.464 76.856,10.392 76.344,10.392 L72.96,10.392 L72.96,15.576 L75.168,15.576 C75.376,15.576 75.48,15.672 75.48,15.864 L75.48,17.088 C75.48,17.28 75.376,17.376 75.168,17.376 L69.048,17.376 C68.84,17.376 68.736,17.28 68.736,17.088 L68.736,15.864 C68.736,15.672 68.84,15.576 69.048,15.576 L70.872,15.576 L70.872,1.944 L69.048,1.944 C68.84,1.944 68.736,1.848 68.736,1.656 L68.736,0.432 C68.736,0.24 68.84,0.144 69.048,0.144 L74.424,0.144 C74.616,0.144 74.712,0.24 74.712,0.432 L74.712,1.656 C74.712,1.848 74.616,1.944 74.424,1.944 L72.96,1.944 L72.96,8.688 L75.48,8.688 C77.176,8.688 78.436,8.188 79.26,7.188 C80.084,6.188 80.496,4.44 80.496,1.944 L78.864,1.944 C78.672,1.944 78.576,1.848 78.576,1.656 L78.576,0.432 C78.576,0.24 78.672,0.144 78.864,0.144 L84.216,0.144 C84.408,0.144 84.504,0.24 84.504,0.432 L84.504,1.656 C84.504,1.848 84.408,1.944 84.216,1.944 L82.56,1.944 C82.56,5.8 81.472,8.32 79.296,9.504 C79.664,9.68 79.952,9.908 80.16,10.188 C80.368,10.468 80.608,10.88 80.88,11.424 L82.968,15.576 L84.432,15.576 C84.624,15.576 84.72,15.672 84.72,15.864 L84.72,17.088 C84.72,17.28 84.624,17.376 84.432,17.376 Z" id="Path"></path>
                <path d="M92.352,17.376 L86.592,17.376 C86.384,17.376 86.28,17.28 86.28,17.088 L86.28,15.864 C86.28,15.672 86.384,15.576 86.592,15.576 L88.416,15.576 L88.416,1.944 L86.592,1.944 C86.384,1.944 86.28,1.848 86.28,1.656 L86.28,0.432 C86.28,0.24 86.384,0.144 86.592,0.144 L92.352,0.144 C92.56,0.144 92.664,0.24 92.664,0.432 L92.664,1.656 C92.664,1.848 92.56,1.944 92.352,1.944 L90.504,1.944 L90.504,15.576 L92.352,15.576 C92.56,15.576 92.664,15.672 92.664,15.864 L92.664,17.088 C92.664,17.28 92.56,17.376 92.352,17.376 Z" id="Path"></path>
                <path d="M109.776,17.376 L108.48,17.376 C108.176,17.376 107.936,17.316 107.76,17.196 C107.584,17.076 107.416,16.888 107.256,16.632 L100.32,5.784 L99.12,3.768 L99.072,3.768 L99.072,15.576 L100.92,15.576 C101.128,15.576 101.232,15.672 101.232,15.864 L101.232,17.088 C101.232,17.28 101.128,17.376 100.92,17.376 L95.16,17.376 C94.952,17.376 94.848,17.28 94.848,17.088 L94.848,15.864 C94.848,15.672 94.952,15.576 95.16,15.576 L96.984,15.576 L96.984,1.944 L95.16,1.944 C94.952,1.944 94.848,1.848 94.848,1.656 L94.848,0.432 C94.848,0.24 94.952,0.144 95.16,0.144 L98.52,0.144 C98.984,0.144 99.392,0.416 99.744,0.96 L106.584,11.664 L107.952,13.992 L108,13.992 L108,1.944 L106.152,1.944 C105.96,1.944 105.864,1.848 105.864,1.656 L105.864,0.432 C105.864,0.24 105.96,0.144 106.152,0.144 L111.936,0.144 C112.128,0.144 112.224,0.24 112.224,0.432 L112.224,1.656 C112.224,1.848 112.128,1.944 111.936,1.944 L110.088,1.944 L110.088,17.088 C110.088,17.28 109.984,17.376 109.776,17.376 Z" id="Path"></path>
                <path d="M128.616,17.376 L127.344,17.376 C127.136,17.376 127.032,17.28 127.032,17.088 L127.056,15.432 C125.648,16.84 123.772,17.544 121.428,17.544 C119.084,17.544 117.128,16.728 115.56,15.096 C113.992,13.464 113.208,11.32 113.208,8.664 C113.208,6.888 113.604,5.328 114.396,3.984 C115.188,2.64 116.196,1.64 117.42,0.984 C118.644,0.328 119.968,0 121.392,0 C123.84,0 125.6,0.76 126.672,2.28 L126.648,0.432 C126.616,0.24 126.712,0.144 126.936,0.144 L128.28,0.144 C128.488,0.144 128.592,0.24 128.592,0.432 L128.592,5.376 C128.592,5.568 128.488,5.664 128.28,5.664 L126.768,5.664 C126.576,5.664 126.48,5.568 126.48,5.376 L126.48,5.088 C126.48,4.384 125.996,3.688 125.028,3 C124.06,2.312 122.824,1.968 121.32,1.968 C119.816,1.968 118.46,2.588 117.252,3.828 C116.044,5.068 115.44,6.724 115.44,8.796 C115.44,10.868 116.048,12.508 117.264,13.716 C118.48,14.924 119.84,15.528 121.344,15.528 C122.848,15.528 124.036,15.288 124.908,14.808 C125.78,14.328 126.432,13.76 126.864,13.104 L126.864,11.232 L122.4,11.232 C122.208,11.232 122.112,11.128 122.112,10.92 L122.112,9.816 C122.112,9.624 122.208,9.528 122.4,9.528 L128.616,9.528 C128.808,9.528 128.904,9.624 128.904,9.816 L128.904,17.088 C128.904,17.28 128.808,17.376 128.616,17.376 Z" id="Path"></path>
                <path d="M140.376,17.376 L139.032,17.376 C138.824,17.376 138.72,17.28 138.72,17.088 L138.72,11.472 C138.72,11.264 138.824,11.16 139.032,11.16 L140.544,11.16 C140.736,11.16 140.832,11.264 140.832,11.472 L140.832,11.976 C140.832,12.28 141.016,12.684 141.384,13.188 C141.752,13.692 142.12,14.104 142.488,14.424 C142.856,14.744 143.348,15.02 143.964,15.252 C144.58,15.484 145.248,15.6 145.968,15.6 C147.2,15.6 148.164,15.344 148.86,14.832 C149.556,14.32 149.904,13.608 149.904,12.696 C149.904,12.168 149.708,11.716 149.316,11.34 C148.924,10.964 148.416,10.664 147.792,10.44 C147.168,10.216 146.476,10.008 145.716,9.816 C144.956,9.624 144.196,9.404 143.436,9.156 C142.676,8.908 141.984,8.612 141.36,8.268 C140.736,7.924 140.228,7.444 139.836,6.828 C139.444,6.212 139.248,5.488 139.248,4.656 C139.248,3.312 139.756,2.2 140.772,1.32 C141.788,0.44 143.152,0 144.864,0 C147.024,0 148.608,0.632 149.616,1.896 L149.568,0.408 C149.568,0.216 149.672,0.12 149.88,0.12 L151.224,0.12 C151.416,0.12 151.512,0.216 151.512,0.408 L151.512,5.64 C151.512,5.832 151.416,5.928 151.224,5.928 L149.712,5.928 C149.52,5.928 149.424,5.832 149.424,5.64 L149.424,4.968 C149.424,4.312 149.056,3.648 148.32,2.976 C147.584,2.304 146.504,1.968 145.08,1.968 C144.024,1.968 143.172,2.22 142.524,2.724 C141.876,3.228 141.552,3.872 141.552,4.656 C141.552,5.216 141.752,5.696 142.152,6.096 C142.552,6.496 143.072,6.816 143.712,7.056 C144.352,7.296 145.056,7.516 145.824,7.716 C146.592,7.916 147.36,8.136 148.128,8.376 C148.896,8.616 149.6,8.904 150.24,9.24 C150.88,9.576 151.4,10.036 151.8,10.62 C152.2,11.204 152.4,11.896 152.4,12.696 C152.4,14.104 151.896,15.264 150.888,16.176 C149.88,17.088 148.376,17.544 146.376,17.544 C144.904,17.544 143.688,17.248 142.728,16.656 C141.768,16.064 141.072,15.424 140.64,14.736 L140.664,17.088 C140.664,17.28 140.568,17.376 140.376,17.376 Z" id="Path"></path>
                <path d="M160.608,17.376 L154.848,17.376 C154.64,17.376 154.536,17.28 154.536,17.088 L154.536,15.864 C154.536,15.672 154.64,15.576 154.848,15.576 L156.672,15.576 L156.672,1.944 L154.848,1.944 C154.64,1.944 154.536,1.848 154.536,1.656 L154.536,0.432 C154.536,0.24 154.64,0.144 154.848,0.144 L160.608,0.144 C160.816,0.144 160.92,0.24 160.92,0.432 L160.92,1.656 C160.92,1.848 160.816,1.944 160.608,1.944 L158.76,1.944 L158.76,15.576 L160.608,15.576 C160.816,15.576 160.92,15.672 160.92,15.864 L160.92,17.088 C160.92,17.28 160.816,17.376 160.608,17.376 Z" id="Path"></path>
                <path d="M182.568,17.376 L177.024,17.376 C176.832,17.376 176.736,17.28 176.736,17.088 L176.736,15.864 C176.736,15.672 176.832,15.576 177.024,15.576 L178.632,15.576 L178.632,3.624 L178.608,3.624 L174.048,14.952 C173.856,15.432 173.504,15.672 172.992,15.672 C172.48,15.672 172.128,15.432 171.936,14.952 L167.376,3.624 L167.328,3.624 L167.328,15.576 L168.936,15.576 C169.144,15.576 169.248,15.672 169.248,15.864 L169.248,17.088 C169.248,17.28 169.144,17.376 168.936,17.376 L163.416,17.376 C163.208,17.376 163.104,17.28 163.104,17.088 L163.104,15.864 C163.104,15.672 163.208,15.576 163.416,15.576 L165.24,15.576 L165.24,1.944 L163.416,1.944 C163.208,1.944 163.104,1.848 163.104,1.656 L163.104,0.432 C163.104,0.24 163.208,0.144 163.416,0.144 L167.112,0.144 C167.656,0.144 168.032,0.416 168.24,0.96 L171.816,9.6 L172.944,12.624 L173.04,12.624 C173.488,11.376 173.856,10.384 174.144,9.648 L177.744,0.96 C177.952,0.416 178.336,0.144 178.896,0.144 L182.568,0.144 C182.76,0.144 182.856,0.24 182.856,0.432 L182.856,1.656 C182.856,1.848 182.76,1.944 182.568,1.944 L180.72,1.944 L180.72,15.576 L182.568,15.576 C182.76,15.576 182.856,15.672 182.856,15.864 L182.856,17.088 C182.856,17.28 182.76,17.376 182.568,17.376 Z" id="Path"></path>
                <path d="M191.616,17.376 L185.352,17.376 C185.144,17.376 185.04,17.28 185.04,17.088 L185.04,15.864 C185.04,15.672 185.144,15.576 185.352,15.576 L187.176,15.576 L187.176,1.944 L185.352,1.944 C185.144,1.944 185.04,1.848 185.04,1.656 L185.04,0.432 C185.04,0.24 185.144,0.144 185.352,0.144 L192.744,0.144 C194.44,0.144 195.828,0.636 196.908,1.62 C197.988,2.604 198.528,3.932 198.528,5.604 C198.528,7.276 198,8.572 196.944,9.492 C195.888,10.412 194.4,10.872 192.48,10.872 L189.264,10.872 L189.264,15.576 L191.616,15.576 C191.808,15.576 191.904,15.672 191.904,15.864 L191.904,17.088 C191.904,17.28 191.808,17.376 191.616,17.376 Z M189.264,9.168 L192.384,9.168 C195.072,9.168 196.416,7.984 196.416,5.616 C196.416,4.384 196.036,3.464 195.276,2.856 C194.516,2.248 193.56,1.944 192.408,1.944 L189.264,1.944 L189.264,9.168 Z" id="Shape"></path>
                <path d="M213.24,17.376 L200.112,17.376 C199.904,17.376 199.8,17.28 199.8,17.088 L199.8,15.864 C199.8,15.672 199.904,15.576 200.112,15.576 L201.936,15.576 L201.936,1.944 L200.112,1.944 C199.904,1.944 199.8,1.848 199.8,1.656 L199.8,0.432 C199.8,0.24 199.904,0.144 200.112,0.144 L205.848,0.144 C206.056,0.144 206.16,0.248 206.16,0.456 L206.16,1.632 C206.16,1.84 206.056,1.944 205.848,1.944 L204.024,1.944 L204.024,15.576 L211.656,15.576 L211.656,13.224 C211.656,13.032 211.76,12.936 211.968,12.936 L213.264,12.936 C213.456,12.936 213.552,13.032 213.552,13.224 L213.552,17.064 C213.552,17.272 213.448,17.376 213.24,17.376 Z" id="Path"></path>
                <path d="M221.016,17.376 L215.256,17.376 C215.048,17.376 214.944,17.28 214.944,17.088 L214.944,15.864 C214.944,15.672 215.048,15.576 215.256,15.576 L217.08,15.576 L217.08,1.944 L215.256,1.944 C215.048,1.944 214.944,1.848 214.944,1.656 L214.944,0.432 C214.944,0.24 215.048,0.144 215.256,0.144 L221.016,0.144 C221.224,0.144 221.328,0.24 221.328,0.432 L221.328,1.656 C221.328,1.848 221.224,1.944 221.016,1.944 L219.168,1.944 L219.168,15.576 L221.016,15.576 C221.224,15.576 221.328,15.672 221.328,15.864 L221.328,17.088 C221.328,17.28 221.224,17.376 221.016,17.376 Z" id="Path"></path>
                <path d="M230.448,17.376 L223.824,17.376 C223.616,17.376 223.512,17.28 223.512,17.088 L223.512,15.864 C223.512,15.672 223.616,15.576 223.824,15.576 L225.648,15.576 L225.648,1.944 L223.824,1.944 C223.616,1.944 223.512,1.848 223.512,1.656 L223.512,0.432 C223.512,0.24 223.616,0.144 223.824,0.144 L236.136,0.144 C236.344,0.144 236.448,0.24 236.448,0.432 L236.448,4.296 C236.448,4.504 236.344,4.608 236.136,4.608 L234.84,4.608 C234.648,4.608 234.552,4.504 234.552,4.296 L234.552,1.944 L227.736,1.944 L227.736,7.896 L233.376,7.896 C233.584,7.896 233.688,7.992 233.688,8.184 L233.688,9.408 C233.688,9.6 233.584,9.696 233.376,9.696 L227.736,9.696 L227.736,15.576 L230.448,15.576 C230.64,15.576 230.736,15.672 230.736,15.864 L230.736,17.088 C230.736,17.28 230.64,17.376 230.448,17.376 Z" id="Path"></path>
                <path d="M244.56,17.376 L238.8,17.376 C238.592,17.376 238.488,17.28 238.488,17.088 L238.488,15.864 C238.488,15.672 238.592,15.576 238.8,15.576 L240.624,15.576 L240.624,1.944 L238.8,1.944 C238.592,1.944 238.488,1.848 238.488,1.656 L238.488,0.432 C238.488,0.24 238.592,0.144 238.8,0.144 L244.56,0.144 C244.768,0.144 244.872,0.24 244.872,0.432 L244.872,1.656 C244.872,1.848 244.768,1.944 244.56,1.944 L242.712,1.944 L242.712,15.576 L244.56,15.576 C244.768,15.576 244.872,15.672 244.872,15.864 L244.872,17.088 C244.872,17.28 244.768,17.376 244.56,17.376 Z" id="Path"></path>
                <path d="M260.112,17.376 L247.368,17.376 C247.16,17.376 247.056,17.28 247.056,17.088 L247.056,15.864 C247.056,15.672 247.16,15.576 247.368,15.576 L249.192,15.576 L249.192,1.944 L247.368,1.944 C247.16,1.944 247.056,1.848 247.056,1.656 L247.056,0.432 C247.056,0.24 247.16,0.144 247.368,0.144 L260.112,0.144 C260.32,0.144 260.424,0.24 260.424,0.432 L260.424,4.296 C260.424,4.504 260.32,4.608 260.112,4.608 L258.816,4.608 C258.624,4.608 258.528,4.504 258.528,4.296 L258.528,1.944 L251.28,1.944 L251.28,7.896 L257.352,7.896 C257.56,7.896 257.664,7.992 257.664,8.184 L257.664,9.408 C257.664,9.6 257.56,9.696 257.352,9.696 L251.28,9.696 L251.28,15.576 L258.504,15.576 L258.504,13.224 C258.504,13.032 258.608,12.936 258.816,12.936 L260.112,12.936 C260.32,12.936 260.424,13.032 260.424,13.224 L260.424,17.088 C260.424,17.28 260.32,17.376 260.112,17.376 Z" id="Path"></path>
                <path d="M269.784,17.376 L262.896,17.376 C262.704,17.376 262.608,17.28 262.608,17.088 L262.608,15.864 C262.608,15.672 262.704,15.576 262.896,15.576 L264.744,15.576 L264.744,1.944 L262.896,1.944 C262.704,1.944 262.608,1.848 262.608,1.656 L262.608,0.432 C262.608,0.24 262.704,0.144 262.896,0.144 L269.376,0.144 C272.032,0.144 274.144,0.908 275.712,2.436 C277.28,3.964 278.064,6.064 278.064,8.736 C278.064,11.408 277.32,13.516 275.832,15.06 C274.344,16.604 272.328,17.376 269.784,17.376 Z M266.832,15.576 L269.208,15.576 C273.656,15.544 275.88,13.28 275.88,8.784 C275.88,6.624 275.308,4.944 274.164,3.744 C273.02,2.544 271.344,1.944 269.136,1.944 L266.832,1.944 L266.832,15.576 Z" id="Shape"></path>
            </g>
        </g>
    </g>
</svg>